<svg viewBox="0 0 80 80" fill="none" xmlns="http://www.w3.org/2000/svg">
<style>
	path { fill: black; }
	@media (prefers-color-scheme: dark) {
		path { fill: white; }
	}
</style>	
<path fill-rule="evenodd" clip-rule="evenodd" d="M57.6364 62.445C56.9504 63.9436 56.1992 65.352 55.3914 66.6586C53.8559 66.705 52.2606 66.6513 50.6198 66.4961C51.6259 65.5609 52.6146 64.5687 53.5806 63.5223C54.9699 63.2089 56.3234 62.8488 57.6364 62.445ZM61.2028 61.2028C60.4862 63.0334 59.6796 64.7646 58.7928 66.3804C61.0056 66.0771 63.0174 65.5439 64.8011 64.801C65.5439 63.0174 66.0771 61.0055 66.3804 58.7928C64.7646 59.6796 63.0334 60.4862 61.2028 61.2028ZM56.9639 69.3823C59.0074 69.2369 60.9536 68.9202 62.7729 68.4334C61.6118 70.0124 60.2116 71.2857 58.6 72.2161C56.9884 73.1466 55.1856 73.7225 53.2376 73.9386C54.5689 72.6065 55.8162 71.0794 56.9639 69.3823ZM60 74.641C56.9699 76.3905 53.5101 77.06 49.8534 76.7733C46.8298 78.85 43.4989 80 40 80C36.5011 80 33.1701 78.85 30.1466 76.7733C26.4898 77.06 23.0301 76.3905 20 74.641C16.9699 72.8916 14.6602 70.2302 13.0801 66.92C9.76984 65.3399 7.10834 63.0301 5.35889 60C3.60943 56.9699 2.9399 53.5101 3.22665 49.8532C1.15 46.8298 0 43.4988 0 40C0 36.5012 1.15 33.1702 3.22665 30.1468C2.9399 26.4899 3.60943 23.0301 5.35889 20C7.10834 16.9699 9.76984 14.6601 13.0801 13.08C14.6602 9.76984 16.9699 7.10841 20 5.35899C23.0301 3.60956 26.4898 2.94003 30.1466 3.22675C33.1701 1.15004 36.5011 0 40 0C43.4989 0 46.8299 1.15004 49.8534 3.22675C53.5102 2.94002 56.9699 3.60956 60 5.35899C63.0301 7.10843 65.3398 9.76991 66.9199 13.0802C70.2301 14.6602 72.8915 16.9699 74.6409 20C76.3903 23.0301 77.0599 26.4898 76.7732 30.1465C78.8499 33.1701 80 36.5011 80 40C80 43.4989 78.8499 46.8299 76.7732 49.8535C77.0599 53.5102 76.3903 56.9699 74.6409 60C72.8915 63.0301 70.2301 65.3398 66.9199 66.9198C65.3398 70.2301 63.0301 72.8916 60 74.641ZM73.9385 26.7623C73.7224 24.8143 73.1465 23.0116 72.216 21.4C71.2856 19.7885 70.0124 18.3883 68.4334 17.2272C68.9203 19.0465 69.2369 20.9926 69.3823 23.0361C71.0793 24.1838 72.6064 25.431 73.9385 26.7623ZM64.8011 15.199C65.5439 16.9826 66.0771 18.9945 66.3804 21.2072C64.7646 20.3204 63.0334 19.5138 61.2028 18.7972C60.4862 16.9666 59.6796 15.2354 58.7928 13.6196C61.0056 13.9229 63.0174 14.4561 64.8011 15.199ZM62.7729 11.5666C60.9536 11.0797 59.0074 10.7631 56.9639 10.6177C55.8162 8.92065 54.5689 7.39354 53.2376 6.06139C55.1856 6.2775 56.9884 6.85341 58.6 7.78386C60.2116 8.71432 61.6118 9.98763 62.7729 11.5666ZM53.4497 10.5347C52.0806 8.77011 50.613 7.29441 49.0778 6.12114C47.1617 6.36965 45.1528 6.91381 43.0848 7.75749C44.6607 8.71348 46.2248 9.8094 47.7607 11.0364C49.7044 10.7417 51.607 10.5747 53.4497 10.5347ZM50.6198 13.5039C52.2606 13.3487 53.8559 13.295 55.3913 13.3414C56.1992 14.648 56.9504 16.0564 57.6364 17.555C56.3234 17.1512 54.9698 16.7911 53.5806 16.4777C52.6145 15.4313 51.6259 14.4391 50.6198 13.5039ZM44.051 11.7438C42.7076 10.789 41.3529 9.94489 40 9.21731C38.647 9.9449 37.2923 10.789 35.949 11.7439C37.2879 12.0507 38.6401 12.4156 39.9999 12.8388C41.3598 12.4156 42.712 12.0506 44.051 11.7438ZM44.6091 14.4886C45.4009 14.3061 46.1867 14.1452 46.9651 14.0059C47.5695 14.5157 48.1696 15.0479 48.764 15.6019C48.0522 15.5025 47.3332 15.4149 46.6076 15.3395C45.9416 15.042 45.2752 14.7584 44.6091 14.4886ZM34.1264 18.0799C36.0366 17.8959 37.998 17.8 40 17.8C42.0019 17.8 43.9633 17.8959 45.8734 18.0799C47.6195 18.8756 49.3662 19.7733 51.0999 20.7742C52.8337 21.7752 54.4844 22.8391 56.0467 23.9535C57.1611 25.5157 58.2248 27.1663 59.2258 28.9C60.2267 30.6337 61.1244 32.3804 61.9201 34.1265C62.1041 36.0367 62.2 37.9981 62.2 40C62.2 42.0019 62.1041 43.9634 61.9201 45.8735C61.1244 47.6197 60.2267 49.3663 59.2258 51.1C58.2248 52.8337 57.1611 54.4843 56.0468 56.0465C54.4845 57.1609 52.8337 58.2248 51.0999 59.2258C49.3662 60.2267 47.6195 61.1244 45.8734 61.9201C43.9633 62.1041 42.0019 62.2 40 62.2C37.998 62.2 36.0366 62.1041 34.1264 61.9201C32.3802 61.1244 30.6336 60.2267 28.8999 59.2258C27.1662 58.2248 25.5156 57.1611 23.9534 56.0468C22.8391 54.4845 21.7752 52.8338 20.7742 51.1C19.7733 49.3663 18.8756 47.6197 18.0799 45.8735C17.8959 43.9634 17.8 42.0019 17.8 40C17.8 37.9981 17.8959 36.0367 18.0799 34.1265C18.8756 32.3804 19.7733 30.6337 20.7742 28.9C21.7752 27.1662 22.8391 25.5155 23.9535 23.9532C25.5156 22.8389 27.1663 21.7752 28.8999 20.7742C30.6336 19.7733 32.3802 18.8756 34.1264 18.0799ZM21.9474 21.9471C21.3567 22.3752 20.7778 22.8105 20.2111 23.2526C20.4489 22.4756 20.7025 21.7147 20.971 20.971C21.7148 20.7024 22.4757 20.4489 23.2527 20.2111C22.8107 20.7777 22.3754 21.3565 21.9474 21.9471ZM35.3907 14.4886C34.7246 14.7584 34.0582 15.042 33.3921 15.3395C32.6666 15.4149 31.9477 15.5025 31.236 15.6019C31.8304 15.0479 32.4304 14.5157 33.0349 14.0059C33.8133 14.1452 34.599 14.3061 35.3907 14.4886ZM16.4778 26.4193C15.4313 27.3853 14.4391 28.374 13.5039 29.3801C13.3487 27.7393 13.295 26.1441 13.3414 24.6086C14.648 23.8008 16.0563 23.0496 17.555 22.3636C17.1512 23.6766 16.7911 25.0301 16.4778 26.4193ZM14.0059 33.0348C14.5157 32.4303 15.0479 31.8303 15.6019 31.2359C15.5025 31.9477 15.4149 32.6667 15.3395 33.3923C15.042 34.0583 14.7584 34.7247 14.4886 35.3908C14.3061 34.599 14.1452 33.8132 14.0059 33.0348ZM11.0364 32.2391C10.7417 30.2955 10.5747 28.393 10.5347 26.5503C8.77007 27.9194 7.29434 29.3871 6.12105 30.9223C6.36957 32.8384 6.91373 34.8472 7.75738 36.9151C8.7134 35.3392 9.80935 33.7751 11.0364 32.2391ZM9.21721 40C9.94481 38.647 10.7889 37.2923 11.7438 35.9489C12.0506 37.2879 12.4156 38.6401 12.8388 40C12.4156 41.3599 12.0506 42.7122 11.7438 44.0511C10.7889 42.7077 9.94481 41.353 9.21721 40ZM6.07218 40C5.17631 38.1576 4.47745 36.3139 3.98943 34.4949C3.20261 36.29 2.8 38.1391 2.8 40C2.8 41.8609 3.20261 43.71 3.98944 45.5051C4.47745 43.6861 5.17631 41.8424 6.07218 40ZM6.12105 49.0777C6.36957 47.1616 6.91373 45.1528 7.75738 43.0849C8.7134 44.6608 9.80935 46.2249 11.0364 47.7609C10.7417 49.7045 10.5747 51.607 10.5347 53.4497C8.77007 52.0806 7.29434 50.6129 6.12105 49.0777ZM6.06127 53.2375C6.27737 55.1856 6.85329 56.9884 7.78376 58.6C8.71423 60.2116 9.98757 61.6118 11.5666 62.773C11.0797 60.9536 10.7631 59.0074 10.6177 56.9639C8.92059 55.8162 7.39344 54.5688 6.06127 53.2375ZM73.8788 30.9221C73.6303 32.8382 73.0861 34.8471 72.2424 36.9151C71.2865 35.3393 70.1906 33.7752 68.9635 32.2393C69.2583 30.2957 69.4253 28.3931 69.4653 26.5503C71.2299 27.9193 72.7055 29.387 73.8788 30.9221ZM73.9276 40C74.8235 38.1575 75.5224 36.3137 76.0104 34.4947C76.7973 36.2898 77.2 38.139 77.2 40C77.2 41.861 76.7973 43.7102 76.0104 45.5053C75.5224 43.6863 74.8235 41.8425 73.9276 40ZM70.7826 40C70.055 38.6471 69.211 37.2924 68.2561 35.9491C67.9493 37.288 67.5844 38.6402 67.1612 40C67.5844 41.3598 67.9493 42.712 68.2561 44.0509C69.211 42.7076 70.055 41.3529 70.7826 40ZM68.9635 47.7607C70.1906 46.2248 71.2864 44.6607 72.2424 43.0849C73.0861 45.1528 73.6303 47.1618 73.8788 49.0779C72.7055 50.613 71.2298 52.0807 69.4653 53.4497C69.4253 51.6069 69.2582 49.7043 68.9635 47.7607ZM65.9941 46.965C65.8548 46.1866 65.6939 45.4009 65.5114 44.6092C65.2416 45.2753 64.958 45.9417 64.6605 46.6078C64.5851 47.3333 64.4975 48.0522 64.3981 48.7639C64.9521 48.1695 65.4843 47.5694 65.9941 46.965ZM63.5223 53.5805C64.5687 52.6144 65.5609 51.6258 66.4961 50.6197C66.6513 52.2605 66.705 53.8558 66.6586 55.3913C65.352 56.1992 63.9437 56.9504 62.445 57.6364C62.8488 56.3234 63.2089 54.9698 63.5223 53.5805ZM17.2271 68.4334C18.3883 70.0124 19.7884 71.2857 21.4 72.2161C23.0116 73.1466 24.8144 73.7225 26.7624 73.9386C25.4311 72.6065 24.1838 71.0794 23.0361 69.3823C20.9926 69.2369 19.0464 68.9203 17.2271 68.4334ZM21.2072 66.3804C20.3204 64.7646 19.5138 63.0334 18.7972 61.2028C16.9666 60.4862 15.2354 59.6796 13.6196 58.7928C13.9229 61.0056 14.4561 63.0174 15.199 64.8011C16.9826 65.5439 18.9945 66.0771 21.2072 66.3804ZM24.6087 66.6586C23.8008 65.352 23.0496 63.9436 22.3636 62.445C23.6766 62.8488 25.0301 63.2089 26.4194 63.5223C27.3854 64.5687 28.374 65.5609 29.3802 66.4961C27.7394 66.6513 26.1441 66.705 24.6087 66.6586ZM26.5503 69.4653C27.9194 71.2299 29.387 72.7056 30.9222 73.8789C32.8383 73.6304 34.8472 73.0862 36.9151 72.2425C35.3393 71.2865 33.7751 70.1906 32.2392 68.9635C30.2956 69.2582 28.393 69.4253 26.5503 69.4653ZM35.9489 68.2561C37.2923 69.211 38.647 70.0551 40 70.7827C41.3529 70.0551 42.7076 69.211 44.051 68.2562C42.712 67.9494 41.3598 67.5844 39.9999 67.1612C38.6401 67.5844 37.2879 67.9493 35.9489 68.2561ZM35.3907 65.5114C34.7246 65.2416 34.0582 64.958 33.3921 64.6605C32.6666 64.5851 31.9477 64.4975 31.236 64.3981C31.8304 64.9521 32.4304 65.4843 33.0349 65.9941C33.8132 65.8548 34.599 65.6939 35.3907 65.5114ZM44.6091 65.5114C45.4009 65.6939 46.1867 65.8548 46.9651 65.9941C47.5695 65.4843 48.1696 64.9521 48.764 64.3981C48.0522 64.4975 47.3332 64.5851 46.6076 64.6605C45.9416 64.958 45.2752 65.2416 44.6091 65.5114ZM53.4497 69.4653C52.0806 71.2299 50.613 72.7056 49.0778 73.8789C47.1617 73.6304 45.1528 73.0862 43.0848 72.2425C44.6607 71.2865 46.2249 70.1906 47.7607 68.9636C49.7044 69.2583 51.607 69.4253 53.4497 69.4653ZM45.5052 76.0105C43.6862 75.5225 41.8424 74.8236 40 73.9277C38.1576 74.8236 36.3138 75.5225 34.4948 76.0105C36.2899 76.7974 38.1391 77.2 40 77.2C41.8609 77.2 43.7101 76.7974 45.5052 76.0105ZM23.2526 59.7889C22.8107 59.2223 22.3754 58.6435 21.9474 58.0529C21.3567 57.6248 20.7778 57.1895 20.2111 56.7474C20.4489 57.5244 20.7025 58.2853 20.971 59.029C21.7148 59.2976 22.4757 59.5511 23.2526 59.7889ZM15.3395 46.6078C15.042 45.9417 14.7584 45.2753 14.4886 44.6092C14.3061 45.401 14.1452 46.1868 14.0059 46.9652C14.5157 47.5697 15.0479 48.1697 15.6019 48.7641C15.5025 48.0523 15.4149 47.3333 15.3395 46.6078ZM73.9385 53.2377C72.6064 54.569 71.0793 55.8162 69.3823 56.9639C69.2369 59.0074 68.9203 60.9535 68.4334 62.7728C70.0124 61.6117 71.2856 60.2115 72.216 58.6C73.1465 56.9884 73.7224 55.1857 73.9385 53.2377ZM65.9941 33.035C65.8548 33.8134 65.6939 34.5991 65.5114 35.3908C65.2416 34.7247 64.958 34.0583 64.6605 33.3923C64.5851 32.6668 64.4975 31.9478 64.3981 31.2361C64.9521 31.8305 65.4843 32.4306 65.9941 33.035ZM59.7889 23.2528C59.2223 22.8108 58.6434 22.3754 58.0528 21.9474C57.6247 21.3567 57.1894 20.7778 56.7473 20.2111C57.5243 20.4489 58.2852 20.7024 59.029 20.971C59.2976 21.7148 59.5512 22.4757 59.7889 23.2528ZM45.5052 3.9895C43.6862 4.47752 41.8424 5.17639 40 6.07229C38.1575 5.17639 36.3138 4.47752 34.4948 3.9895C36.2899 3.20264 38.1391 2.8 40 2.8C41.8609 2.8 43.7101 3.20264 45.5052 3.9895ZM36.9151 7.75749C34.8472 6.91382 32.8383 6.36966 30.9222 6.12114C29.387 7.29442 27.9194 8.77012 26.5503 10.5347C28.393 10.5747 30.2956 10.7417 32.2392 11.0365C33.7751 9.80941 35.3393 8.71349 36.9151 7.75749ZM21.4 7.78386C23.0116 6.85341 24.8144 6.2775 26.7624 6.06139C25.4311 7.39354 24.1838 8.92064 23.0361 10.6177C20.9926 10.7631 19.0464 11.0797 17.2271 11.5666C18.3883 9.98759 19.7884 8.71431 21.4 7.78386ZM7.78376 21.4C8.71424 19.7884 9.98757 18.3882 11.5666 17.227C11.0797 19.0464 10.7631 20.9926 10.6177 23.0361C8.9206 24.1838 7.39345 25.4312 6.06127 26.7625C6.27737 24.8144 6.85329 23.0116 7.78376 21.4ZM15.199 15.1989C14.4561 16.9826 13.9229 18.9944 13.6196 21.2072C15.2354 20.3204 16.9666 19.5138 18.7972 18.7972C19.5138 16.9666 20.3204 15.2354 21.2072 13.6196C18.9945 13.9229 16.9826 14.4561 15.199 15.1989ZM62.445 22.3636C63.9436 23.0496 65.352 23.8008 66.6586 24.6086C66.705 26.1442 66.6513 27.7395 66.4961 29.3803C65.5609 28.3742 64.5687 27.3856 63.5223 26.4195C63.2089 25.0302 62.8488 23.6766 62.445 22.3636ZM26.4194 16.4777C27.3855 15.4313 28.3741 14.4391 29.3802 13.5039C27.7394 13.3487 26.1441 13.295 24.6087 13.3414C23.8008 14.648 23.0496 16.0563 22.3636 17.555C23.6766 17.1512 25.0302 16.7911 26.4194 16.4777ZM17.555 57.6364C16.0563 56.9504 14.648 56.1992 13.3414 55.3913C13.295 53.8559 13.3487 52.2607 13.5039 50.6199C14.4391 51.626 15.4313 52.6147 16.4778 53.5807C16.7911 54.9699 17.1512 56.3234 17.555 57.6364ZM59.7889 56.7472C59.2223 57.1892 58.6435 57.6245 58.0528 58.0526C57.6248 58.6433 57.1894 59.2222 56.7474 59.7889C57.5243 59.5511 58.2852 59.2976 59.029 59.029C59.2976 58.2852 59.5511 57.5243 59.7889 56.7472Z" fill="black"/>
</svg>
