<svg viewBox="0 0 80 80" fill="none" xmlns="http://www.w3.org/2000/svg">
<style>
	path { fill: black; }
	@media (prefers-color-scheme: dark) {
		path { fill: white; }
	}
</style>
<path fill-rule="evenodd" clip-rule="evenodd" d="M56.4545 49.5C56.8743 48.7729 57.2722 48.0425 57.6483 47.3103C57.9001 46.5266 58.1353 45.7286 58.3526 44.9176C58.5699 44.1065 58.7652 43.2979 58.939 42.4933C58.9794 41.6711 59 40.8396 59 40C59 39.1603 58.9794 38.3287 58.939 37.5065C58.7652 36.7019 58.5699 35.8934 58.3526 35.0824C58.1353 34.2714 57.9002 33.4735 57.6484 32.6898C57.2723 31.9576 56.8743 31.2272 56.4545 30.5C56.0347 29.7728 55.6011 29.063 55.155 28.3712C54.6022 27.7612 54.0288 27.1587 53.4351 26.565C52.8414 25.9713 52.2388 25.3979 51.6289 24.8451C50.9371 24.399 50.2272 23.9654 49.5 23.5455C48.7728 23.1257 48.0424 22.7278 47.3102 22.3516C46.5265 22.0998 45.7286 21.8647 44.9176 21.6474C44.1065 21.4301 43.298 21.2348 42.4933 21.061C41.6712 21.0206 40.8396 21 40 21C39.1603 21 38.3288 21.0206 37.5066 21.061C36.702 21.2348 35.8934 21.4301 35.0824 21.6474C34.2714 21.8647 33.4735 22.0998 32.6898 22.3516C31.9576 22.7277 31.2272 23.1257 30.5 23.5455C29.7728 23.9653 29.063 24.3989 28.3712 24.845C27.7613 25.3978 27.1587 25.9712 26.565 26.565C25.9713 27.1587 25.3979 27.7612 24.845 28.3711C24.399 29.063 23.9654 29.7728 23.5455 30.5C23.1257 31.2272 22.7277 31.9577 22.3516 32.6899C22.0998 33.4736 21.8647 34.2714 21.6474 35.0824C21.4301 35.8935 21.2348 36.702 21.061 37.5066C21.0206 38.3288 21 39.1603 21 40C21 40.8396 21.0206 41.6711 21.061 42.4933C21.2348 43.2979 21.4301 44.1065 21.6474 44.9176C21.8648 45.7286 22.0999 46.5265 22.3517 47.3102C22.7278 48.0424 23.1257 48.7729 23.5455 49.5C23.9654 50.2272 24.399 50.937 24.845 51.6288C25.3978 52.2387 25.9713 52.8413 26.565 53.435C27.1588 54.0288 27.7613 54.6022 28.3713 55.1551C29.0631 55.6011 29.7729 56.0347 30.5 56.4545C31.2271 56.8743 31.9576 57.2722 32.6898 57.6483C33.4735 57.9002 34.2714 58.1353 35.0824 58.3526C35.8935 58.5699 36.702 58.7652 37.5066 58.939C38.3288 58.9794 39.1603 59 40 59C40.8396 59 41.6712 58.9794 42.4933 58.939C43.2979 58.7652 44.1065 58.5699 44.9175 58.3526C45.7286 58.1353 46.5265 57.9001 47.3102 57.6483C48.0424 57.2722 48.7728 56.8743 49.5 56.4545C50.2272 56.0346 50.937 55.601 51.6289 55.155C52.2388 54.6022 52.8413 54.0288 53.435 53.435C54.0288 52.8413 54.6022 52.2387 55.155 51.6288C55.6011 50.937 56.0347 50.2271 56.4545 49.5ZM45.2862 59.7284C45.4657 59.7097 45.6447 59.6902 45.8232 59.6697C45.6665 59.773 45.5096 59.8751 45.3525 59.9758C45.1661 59.9671 44.9792 59.9571 44.7918 59.946C44.9566 59.8745 45.1214 59.802 45.2862 59.7284ZM34.1768 59.6697C34.3553 59.6902 34.5343 59.7097 34.7138 59.7284C34.8785 59.802 35.0433 59.8745 35.2082 59.946C35.0208 59.9571 34.8339 59.9671 34.6475 59.9758C34.4904 59.875 34.3336 59.773 34.1768 59.6697ZM30.2091 58.0261C30.0684 57.9145 29.928 57.8017 29.7879 57.688C29.6193 57.6235 29.4515 57.5583 29.2844 57.4923C29.409 57.6327 29.5342 57.7719 29.6598 57.9098C29.8421 57.9496 30.0252 57.9884 30.2091 58.0261ZM30.8541 59.1712C31.226 59.2404 31.6007 59.3055 31.9782 59.3664C32.2881 59.5902 32.5992 59.8092 32.9111 60.0232C32.5077 60.0262 32.1071 60.0236 31.7094 60.0153C31.4224 59.74 31.1372 59.4586 30.8541 59.1712ZM27.9702 57.5062C27.7243 57.2187 27.4806 56.9267 27.2391 56.6303C26.8903 56.4738 26.5452 56.3139 26.2039 56.1508C26.403 56.5017 26.6056 56.8473 26.8116 57.1875C27.1935 57.2984 27.5798 57.4047 27.9702 57.5062ZM27.6034 58.4439C28.1077 58.5765 28.6185 58.7012 29.1356 58.8178C29.4951 59.2073 29.8585 59.5873 30.2254 59.9577C29.6609 59.9255 29.1033 59.8818 28.5531 59.8267C28.2302 59.3778 27.9135 58.9167 27.6034 58.4439ZM25.393 56.7478C25.1345 56.2951 24.8818 55.8339 24.6354 55.3647C24.1661 55.1182 23.705 54.8655 23.2522 54.607C23.4294 55.1439 23.6159 55.6712 23.8115 56.1885C24.3288 56.3841 24.8561 56.5706 25.393 56.7478ZM24.3083 57.4344C24.9134 57.6476 25.5306 57.8488 26.1593 58.0376C26.5043 58.596 26.8585 59.1401 27.221 59.6694C26.5232 59.5741 25.8388 59.4601 25.1693 59.3277C24.8682 58.7153 24.5809 58.0838 24.3083 57.4344ZM22.5656 55.6917C22.3524 55.0867 22.1512 54.4694 21.9624 53.8407C21.404 53.4957 20.8599 53.1415 20.3306 52.779C20.4259 53.4768 20.5399 54.1612 20.6723 54.8307C21.2847 55.1318 21.9162 55.4191 22.5656 55.6917ZM20.9415 56.0675C21.6201 56.3825 22.3194 56.681 23.0378 56.9622C23.319 57.6806 23.6175 58.3798 23.9325 59.0584C23.3053 58.909 22.6928 58.7428 22.0963 58.5604C21.9286 58.5091 21.7622 58.4565 21.5972 58.4028C21.5434 58.2378 21.4909 58.0714 21.4396 57.9037C21.2572 57.3071 21.091 56.6947 20.9415 56.0675ZM19.5473 54.2505C19.4187 53.5135 19.3113 52.7608 19.2256 51.9941C18.6045 51.5365 18.0063 51.0672 17.4324 50.5874C17.4144 51.2318 17.4164 51.8664 17.4382 52.4899C17.4444 52.6651 17.4521 52.8395 17.4613 53.0127C17.6068 53.1074 17.7538 53.2012 17.9026 53.2941C18.4316 53.6248 18.9802 53.9438 19.5473 54.2505ZM17.5559 54.2558C18.2688 54.6942 19.0144 55.112 19.7903 55.5075C19.9715 56.3593 20.182 57.1876 20.421 57.9897C19.5587 57.6642 18.7391 57.3029 17.9656 56.9076C17.7839 56.0582 17.6471 55.1729 17.5559 54.2558ZM16.4321 52.3093C16.4088 51.4727 16.4198 50.6181 16.4653 49.7484C15.8182 49.1656 15.2061 48.5691 14.631 47.961C14.4817 48.8706 14.3848 49.761 14.3403 50.6286C14.9852 51.2106 15.6834 51.7718 16.4321 52.3093ZM14.3133 51.9295C14.9938 52.5009 15.722 53.0489 16.4942 53.5711C16.5603 54.5009 16.6708 55.4056 16.8254 56.2807C16.0025 55.794 15.241 55.2649 14.546 54.6959C14.4008 53.8095 14.3232 52.8855 14.3133 51.9295ZM13.4013 49.7279C12.7324 49.0448 12.1338 48.3366 11.6097 47.6071C11.6989 46.7134 11.8632 45.8008 12.1009 44.8747C12.6104 45.6029 13.1719 46.3206 13.7827 47.0249C13.6059 47.9402 13.4785 48.8426 13.4013 49.7279ZM10.7741 46.3179C10.9145 45.4768 11.1147 44.6257 11.3723 43.7689C10.9017 43.0079 10.4881 42.2376 10.1348 41.4615C9.9065 42.3075 9.75848 43.1519 9.69374 43.9898C9.97316 44.7825 10.3347 45.5598 10.7741 46.3179ZM9.76352 46.5644C9.82988 47.0552 9.92725 47.5419 10.0563 48.0234C10.1853 48.5049 10.3443 48.975 10.5322 49.4333C10.5239 48.9221 10.5404 48.4049 10.5814 47.8827C10.2848 47.4509 10.0118 47.0112 9.76352 46.5644ZM8.68077 44.1232C8.59415 45.5239 8.72451 46.9169 9.09034 48.2822C9.45618 49.6475 10.0398 50.919 10.8151 52.0888C11.094 53.4642 11.5804 54.7759 12.2872 56C12.9939 57.2241 13.8867 58.3012 14.9384 59.2305C15.5638 60.4868 16.3731 61.628 17.3726 62.6274C18.3721 63.6269 19.5132 64.4363 20.7696 65.0616C21.6988 66.1133 22.7759 67.0061 24 67.7128C25.2241 68.4195 26.5358 68.906 27.9112 69.1848C29.081 69.9602 30.3525 70.5438 31.7178 70.9096C33.0831 71.2754 34.476 71.4058 35.8767 71.3192C37.2073 71.7654 38.5865 72 40 72C41.4135 72 42.7927 71.7654 44.1233 71.3192C45.524 71.4058 46.9169 71.2755 48.2822 70.9096C49.6475 70.5438 50.919 69.9602 52.0888 69.1848C53.4642 68.906 54.7759 68.4195 56 67.7128C57.2241 67.0061 58.3012 66.1133 59.2304 65.0616C60.4868 64.4363 61.628 63.6269 62.6274 62.6274C63.6269 61.6279 64.4363 60.4868 65.0617 59.2304C66.1133 58.3012 67.0061 57.2241 67.7128 56C68.4195 54.7759 68.9059 53.4642 69.1848 52.0888C69.9602 50.919 70.5438 49.6475 70.9096 48.2822C71.2755 46.9169 71.4058 45.524 71.3192 44.1232C71.7654 42.7926 72 41.4135 72 40C72 38.5865 71.7654 37.2073 71.3192 35.8767C71.4058 34.476 71.2754 33.0831 70.9096 31.7178C70.5438 30.3525 69.9602 29.081 69.1848 27.9113C68.906 26.5358 68.4195 25.2241 67.7128 24C67.0061 22.7759 66.1133 21.6988 65.0616 20.7696C64.4362 19.5132 63.6269 18.3721 62.6274 17.3726C61.628 16.3731 60.4868 15.5638 59.2305 14.9384C58.3013 13.8867 57.2241 12.9939 56 12.2872C54.7759 11.5805 53.4642 11.094 52.0888 10.8151C50.919 10.0398 49.6475 9.4562 48.2822 9.09037C46.9169 8.72454 45.524 8.59418 44.1232 8.68079C42.7927 8.2346 41.4135 8 40 8C38.5865 8 37.2073 8.2346 35.8767 8.6808C34.476 8.59419 33.0831 8.72454 31.7178 9.09037C30.3525 9.4562 29.081 10.0398 27.9113 10.8151C26.5358 11.094 25.2241 11.5805 24 12.2872C22.7759 12.9939 21.6988 13.8867 20.7695 14.9384C19.5132 15.5638 18.3721 16.3731 17.3726 17.3726C16.3732 18.372 15.5638 19.5132 14.9385 20.7695C13.8867 21.6987 12.9939 22.7759 12.2872 24C11.5804 25.2241 11.094 26.5359 10.8151 27.9113C10.0398 29.0811 9.45621 30.3525 9.09038 31.7178C8.72456 33.0831 8.5942 34.476 8.6808 35.8767C8.2346 37.2073 8 38.5865 8 40C8 41.4134 8.23459 42.7926 8.68077 44.1232ZM9.09483 41.4849C9.21903 40.989 9.36889 40.4938 9.5436 39.9999C9.3689 39.5061 9.21903 39.0109 9.09484 38.515C9.03191 39.0063 9 39.5015 9 40C9 40.4984 9.03191 40.9937 9.09483 41.4849ZM9.69377 36.0101C9.75851 36.8481 9.90652 37.6924 10.1348 38.5384C10.4881 37.7623 10.9017 36.992 11.3723 36.2311C11.1147 35.3743 10.9145 34.5232 10.7741 33.6821C10.3347 34.4401 9.97318 35.2175 9.69377 36.0101ZM11.6097 32.3929C11.6989 33.2866 11.8631 34.1992 12.1009 35.1252C12.6104 34.3971 13.1719 33.6793 13.7827 32.975C13.6059 32.0598 13.4785 31.1574 13.4014 30.2721C12.7324 30.9552 12.1338 31.6634 11.6097 32.3929ZM13.3233 28.9501C12.6717 29.5634 12.0728 30.2003 11.5307 30.8586C11.5291 29.9824 11.6047 29.1285 11.7591 28.3023C12.2341 27.6089 12.7845 26.9516 13.4052 26.3331C13.3231 27.1819 13.2962 28.0558 13.3233 28.9501ZM14.3404 29.3714C14.3848 30.2389 14.4817 31.1294 14.631 32.0389C15.2061 31.4309 15.8182 30.8344 16.4653 30.2516C16.4198 29.3819 16.4088 28.5273 16.4321 27.6907C15.6834 28.2282 14.9852 28.7894 14.3404 29.3714ZM16.4942 26.4289C15.722 26.9511 14.9938 27.4991 14.3133 28.0705C14.3233 27.1145 14.4008 26.1905 14.546 25.3041C15.241 24.7352 16.0025 24.206 16.8254 23.7194C16.6708 24.5945 16.5603 25.4991 16.4942 26.4289ZM17.4613 26.9873C17.4521 27.1605 17.4444 27.3348 17.4382 27.5101C17.4164 28.1336 17.4144 28.7682 17.4324 29.4126C18.0064 28.9328 18.6045 28.4634 19.2256 28.0059C19.3113 27.2392 19.4187 26.4865 19.5473 25.7495C18.9802 26.0562 18.4316 26.3752 17.9026 26.7059C17.7538 26.7988 17.6068 26.8926 17.4613 26.9873ZM19.7903 24.4925C19.0144 24.888 18.2688 25.3057 17.5559 25.7442C17.6471 24.8271 17.7839 23.9419 17.9656 23.0924C18.7391 22.6971 19.5587 22.3358 20.421 22.0103C20.182 22.8124 19.9715 23.6407 19.7903 24.4925ZM20.6723 25.1693C20.54 25.8388 20.4259 26.5232 20.3306 27.2209C20.8599 26.8584 21.404 26.5043 21.9624 26.1593C22.1512 25.5306 22.3524 24.9133 22.5656 24.3083C21.9162 24.5809 21.2847 24.8682 20.6723 25.1693ZM23.0378 23.0378C22.3194 23.319 21.6202 23.6175 20.9416 23.9325C21.091 23.3053 21.2572 22.6929 21.4396 22.0963C21.4909 21.9286 21.5435 21.7622 21.5972 21.5972C21.7622 21.5435 21.9286 21.4909 22.0963 21.4396C22.6929 21.2572 23.3053 21.091 23.9325 20.9416C23.6175 21.6202 23.319 22.3194 23.0378 23.0378ZM23.8115 23.8115C23.6159 24.3288 23.4294 24.8561 23.2522 25.393C23.7049 25.1344 24.1661 24.8818 24.6353 24.6353C24.8818 24.1661 25.1345 23.7049 25.393 23.2522C24.8561 23.4294 24.3288 23.6159 23.8115 23.8115ZM26.1593 21.9624C25.5306 22.1512 24.9133 22.3524 24.3083 22.5656C24.5809 21.9162 24.8682 21.2847 25.1693 20.6723C25.8388 20.54 26.5232 20.4259 27.221 20.3306C26.8584 20.8599 26.5043 21.404 26.1593 21.9624ZM26.8115 22.8125C26.6056 23.1527 26.4029 23.4983 26.2038 23.8492C26.5452 23.6861 26.8903 23.5262 27.2392 23.3697C27.4806 23.0732 27.7243 22.7813 27.9702 22.4938C27.5798 22.5953 27.1935 22.7016 26.8115 22.8125ZM29.1355 21.1822C28.6185 21.2988 28.1077 21.4235 27.6034 21.5561C27.9135 21.0833 28.2302 20.6223 28.553 20.1733C29.1032 20.1182 29.6609 20.0745 30.2254 20.0423C29.8585 20.4127 29.4951 20.7927 29.1355 21.1822ZM29.6598 22.0902C29.5342 22.2281 29.409 22.3673 29.2844 22.5077C29.4515 22.4417 29.6193 22.3765 29.7879 22.312C29.928 22.1983 30.0684 22.0855 30.2091 21.9739C30.0252 22.0116 29.8421 22.0504 29.6598 22.0902ZM31.9782 20.6336C31.6007 20.6945 31.226 20.7596 30.8541 20.8288C31.1372 20.5414 31.4224 20.2601 31.7094 19.9847C32.107 19.9764 32.5077 19.9738 32.9111 19.9768C32.5991 20.1908 32.2881 20.4098 31.9782 20.6336ZM34.7138 20.2716C34.5343 20.2903 34.3553 20.3098 34.1768 20.3303C34.3335 20.227 34.4904 20.125 34.6475 20.0242C34.8339 20.0329 35.0208 20.0429 35.2082 20.054C35.0434 20.1255 34.8786 20.198 34.7138 20.2716ZM45.8232 20.3304C45.6447 20.3098 45.4657 20.2903 45.2862 20.2716C45.1214 20.198 44.9566 20.1255 44.7918 20.054C44.9792 20.0429 45.1661 20.0329 45.3525 20.0242C45.5096 20.1249 45.6665 20.227 45.8232 20.3304ZM49.791 21.9739C49.9317 22.0856 50.0721 22.1983 50.2122 22.312C50.3808 22.3765 50.5486 22.4417 50.7157 22.5077C50.591 22.3674 50.4659 22.2282 50.3403 22.0902C50.158 22.0504 49.9748 22.0116 49.791 21.9739ZM49.1459 20.8288C48.774 20.7596 48.3993 20.6945 48.0218 20.6336C47.7119 20.4098 47.4009 20.1908 47.0889 19.9768C47.4923 19.9738 47.893 19.9764 48.2906 19.9847C48.5776 20.26 48.8628 20.5414 49.1459 20.8288ZM52.0298 22.4938C52.2757 22.7813 52.5194 23.0733 52.7609 23.3697C53.1097 23.5262 53.4549 23.6861 53.7962 23.8492C53.5971 23.4984 53.3945 23.1527 53.1885 22.8125C52.8065 22.7016 52.4202 22.5953 52.0298 22.4938ZM52.3966 21.5561C51.8923 21.4235 51.3815 21.2988 50.8645 21.1822C50.505 20.7927 50.1415 20.4127 49.7746 20.0423C50.3391 20.0745 50.8968 20.1182 51.447 20.1733C51.7698 20.6222 52.0865 21.0833 52.3966 21.5561ZM54.607 23.2522C54.8656 23.705 55.1182 24.1661 55.3647 24.6353C55.8339 24.8818 56.2951 25.1345 56.7478 25.393C56.5706 24.8561 56.3841 24.3288 56.1885 23.8115C55.6712 23.6159 55.1439 23.4294 54.607 23.2522ZM55.6917 22.5656C55.0867 22.3524 54.4694 22.1512 53.8407 21.9624C53.4957 21.404 53.1416 20.8599 52.779 20.3306C53.4768 20.4259 54.1612 20.54 54.8307 20.6723C55.1318 21.2847 55.4191 21.9162 55.6917 22.5656ZM57.4344 24.3083C57.6476 24.9133 57.8488 25.5306 58.0376 26.1593C58.596 26.5043 59.1401 26.8585 59.6694 27.221C59.5741 26.5232 59.46 25.8388 59.3277 25.1693C58.7153 24.8682 58.0838 24.5809 57.4344 24.3083ZM59.0584 23.9325C58.3798 23.6175 57.6806 23.319 56.9622 23.0378C56.681 22.3194 56.3825 21.6202 56.0675 20.9416C56.6947 21.091 57.3071 21.2572 57.9037 21.4396C58.0714 21.4909 58.2378 21.5435 58.4028 21.5972C58.4565 21.7622 58.5091 21.9286 58.5604 22.0963C58.7428 22.6929 58.909 23.3053 59.0584 23.9325ZM60.4527 25.7495C60.5813 26.4865 60.6887 27.2392 60.7744 28.0059C61.3955 28.4635 61.9937 28.9328 62.5676 29.4126C62.5856 28.7682 62.5836 28.1336 62.5618 27.5101C62.5556 27.3349 62.548 27.1606 62.5387 26.9873C62.3933 26.8926 62.2462 26.7988 62.0974 26.7059C61.5684 26.3752 61.0198 26.0562 60.4527 25.7495ZM62.4442 25.7442C61.7312 25.3058 60.9856 24.888 60.2097 24.4925C60.0285 23.6407 59.818 22.8124 59.579 22.0103C60.4413 22.3358 61.2609 22.6971 62.0345 23.0924C62.2161 23.9419 62.353 24.8271 62.4442 25.7442ZM63.5679 27.6907C63.5912 28.5273 63.5802 29.382 63.5347 30.2516C64.1818 30.8344 64.7939 31.4309 65.369 32.039C65.5183 31.1294 65.6152 30.239 65.6597 29.3714C65.0148 28.7894 64.3166 28.2283 63.5679 27.6907ZM65.6867 28.0705C65.0062 27.4991 64.278 26.9511 63.5058 26.4289C63.4397 25.4991 63.3292 24.5945 63.1746 23.7194C63.9975 24.206 64.759 24.7352 65.454 25.3041C65.5992 26.1905 65.6767 27.1145 65.6867 28.0705ZM66.5987 30.2721C66.5215 31.1574 66.3941 32.0598 66.2173 32.9751C66.828 33.6793 67.3896 34.3971 67.899 35.1252C68.1368 34.1992 68.3011 33.2866 68.3903 32.3928C67.8662 31.6634 67.2676 30.9552 66.5987 30.2721ZM68.4693 30.8585C67.9271 30.2003 67.3283 29.5634 66.6767 28.9501C66.7038 28.0558 66.6769 27.1819 66.5948 26.3332C67.2155 26.9516 67.7659 27.6089 68.2409 28.3023C68.3952 29.1284 68.4708 29.9823 68.4693 30.8585ZM69.2258 33.682C69.0854 34.5232 68.8853 35.3742 68.6276 36.2311C69.0983 36.992 69.5119 37.7623 69.8652 38.5384C70.0935 37.6924 70.2415 36.848 70.3062 36.01C70.0268 35.2174 69.6653 34.4401 69.2258 33.682ZM70.2364 33.4355C69.9881 32.9887 69.7152 32.5491 69.4186 32.1173C69.4595 31.5951 69.4761 31.0779 69.4677 30.5668C69.6557 31.025 69.8147 31.4951 69.9437 31.9766C70.0727 32.4581 70.17 32.9447 70.2364 33.4355ZM70.9052 38.5149C70.781 39.0108 70.6311 39.5061 70.4564 39.9999C70.6311 40.4938 70.781 40.9891 70.9052 41.485C70.9681 40.9937 71 40.4985 71 40C71 39.5015 70.9681 39.0062 70.9052 38.5149ZM70.3062 43.9899C70.2415 43.1519 70.0935 42.3075 69.8652 41.4615C69.5119 42.2376 69.0983 43.0079 68.6276 43.7689C68.8853 44.6257 69.0854 45.4768 69.2258 46.318C69.6653 45.5599 70.0268 44.7825 70.3062 43.9899ZM68.3903 47.6072C68.3011 46.7134 68.1368 45.8008 67.899 44.8747C67.3896 45.6029 66.8281 46.3206 66.2173 47.0249C66.3941 47.9401 66.5216 48.8425 66.5987 49.7278C67.2676 49.0448 67.8662 48.3366 68.3903 47.6072ZM66.6767 51.0498C67.3283 50.4366 67.9271 49.7997 68.4693 49.1415C68.4708 50.0177 68.3952 50.8716 68.2409 51.6978C67.7659 52.3911 67.2155 53.0484 66.5948 53.6669C66.6769 52.8181 66.7038 51.9442 66.6767 51.0498ZM65.6597 50.6286C65.6153 49.761 65.5183 48.8705 65.3691 47.961C64.7939 48.569 64.1818 49.1656 63.5347 49.7484C63.5802 50.618 63.5912 51.4727 63.5679 52.3093C64.3166 51.7717 65.0148 51.2106 65.6597 50.6286ZM63.5058 53.5711C64.278 53.0489 65.0062 52.5009 65.6868 51.9294C65.6768 52.8855 65.5993 53.8095 65.4541 54.6959C64.759 55.2648 63.9975 55.794 63.1746 56.2806C63.3292 55.4056 63.4397 54.5009 63.5058 53.5711ZM62.5387 53.0127C62.548 52.8394 62.5556 52.6651 62.5618 52.4899C62.5836 51.8664 62.5856 51.2318 62.5676 50.5873C61.9937 51.0672 61.3955 51.5365 60.7744 51.9941C60.6887 52.7608 60.5813 53.5134 60.4528 54.2504C61.0198 53.9438 61.5684 53.6248 62.0974 53.2941C62.2462 53.2012 62.3933 53.1074 62.5387 53.0127ZM60.2097 55.5074C60.9856 55.112 61.7313 54.6942 62.4442 54.2558C62.353 55.1729 62.2161 56.0582 62.0345 56.9076C61.2609 57.3029 60.4413 57.6642 59.579 57.9897C59.818 57.1876 60.0286 56.3592 60.2097 55.5074ZM59.3277 54.8307C59.4601 54.1612 59.5741 53.4768 59.6694 52.779C59.1401 53.1415 58.596 53.4956 58.0376 53.8407C57.8488 54.4694 57.6476 55.0866 57.4344 55.6917C58.0838 55.4191 58.7153 55.1318 59.3277 54.8307ZM56.9622 56.9622C57.6806 56.681 58.3799 56.3825 59.0585 56.0675C58.909 56.6947 58.7428 57.3071 58.5604 57.9037C58.5091 58.0714 58.4566 58.2378 58.4028 58.4028C58.2378 58.4566 58.0714 58.5091 57.9037 58.5604C57.3071 58.7428 56.6947 58.909 56.0675 59.0585C56.3825 58.3799 56.681 57.6806 56.9622 56.9622ZM56.1885 56.1885C56.3841 55.6712 56.5707 55.1439 56.7478 54.607C56.2951 54.8655 55.8339 55.1182 55.3647 55.3647C55.1182 55.8339 54.8655 56.2951 54.607 56.7478C55.1439 56.5706 55.6712 56.3841 56.1885 56.1885ZM53.8407 58.0376C54.4694 57.8488 55.0866 57.6476 55.6917 57.4344C55.4191 58.0838 55.1318 58.7153 54.8307 59.3277C54.1612 59.4601 53.4768 59.5741 52.779 59.6694C53.1415 59.1401 53.4957 58.596 53.8407 58.0376ZM53.1884 57.1875C53.3944 56.8473 53.5971 56.5017 53.7962 56.1508C53.4548 56.3139 53.1097 56.4738 52.7609 56.6303C52.5195 56.9267 52.2757 57.2187 52.0298 57.5062C52.4202 57.4047 52.8065 57.2984 53.1884 57.1875ZM50.8645 58.8178C51.3815 58.7012 51.8923 58.5765 52.3966 58.4439C52.0865 58.9167 51.7697 59.3778 51.4469 59.8267C50.8967 59.8818 50.3391 59.9255 49.7746 59.9577C50.1415 59.5873 50.505 59.2073 50.8645 58.8178ZM49.1459 59.1712C48.8628 59.4586 48.5776 59.74 48.2906 60.0153C47.8929 60.0236 47.4923 60.0262 47.0889 60.0232C47.4009 59.8092 47.7119 59.5902 48.0218 59.3664C48.3993 59.3055 48.774 59.2404 49.1459 59.1712ZM50.3403 57.9098C50.1579 57.9496 49.9748 57.9884 49.7909 58.0261C49.9317 57.9144 50.0721 57.8017 50.2122 57.688C50.3808 57.6235 50.5486 57.5582 50.7157 57.4922C50.591 57.6326 50.4659 57.7718 50.3403 57.9098ZM69.4186 47.8827C69.7152 47.4509 69.9881 47.0113 70.2365 46.5644C70.1701 47.0552 70.0727 47.5419 69.9437 48.0234C69.8147 48.5049 69.6557 48.9751 69.4677 49.4333C69.4761 48.9222 69.4595 48.405 69.4186 47.8827ZM10.5814 32.1173C10.2848 32.5491 10.0119 32.9887 9.76357 33.4355C9.82994 32.9447 9.9273 32.4581 10.0563 31.9766C10.1853 31.4952 10.3443 31.025 10.5322 30.5668C10.5239 31.0779 10.5404 31.5951 10.5814 32.1173ZM13.3233 51.0499C13.2962 51.9442 13.3231 52.8181 13.4052 53.6669C12.7845 53.0484 12.2341 52.3911 11.7591 51.6978C11.6047 50.8716 11.5291 50.0177 11.5307 49.1414C12.0728 49.7996 12.6717 50.4366 13.3233 51.0499ZM59.7284 34.7138C59.7097 34.5343 59.6902 34.3553 59.6696 34.1768C59.773 34.3335 59.875 34.4904 59.9758 34.6475C59.9671 34.8339 59.9571 35.0208 59.946 35.2081C59.8745 35.0433 59.802 34.8785 59.7284 34.7138ZM60.7827 37.2639C60.8216 36.8835 60.8557 36.5047 60.8851 36.1275C61.0894 36.4754 61.2874 36.8237 61.4791 37.1722C61.3841 37.5585 61.283 37.9461 61.1757 38.335C61.0497 37.9783 60.9187 37.6212 60.7827 37.2639ZM60.9885 34.3761C61.2717 34.8242 61.5447 35.2736 61.8075 35.7239C61.9225 35.1703 62.0246 34.6204 62.1138 34.0746C61.7637 33.6466 61.4003 33.2214 61.0239 32.7995C61.0214 33.3208 61.0097 33.8465 60.9885 34.3761ZM61.7289 40C61.8865 39.4939 62.0339 38.9892 62.1712 38.4862C62.4256 38.9911 62.6665 39.4959 62.8939 40C62.6665 40.504 62.4256 41.0088 62.1712 41.5138C62.0339 41.0108 61.8865 40.5061 61.7289 40ZM62.5414 37.0324C62.8524 37.6104 63.1466 38.1891 63.4237 38.7677C63.6901 38.1158 63.9335 37.4661 64.1536 36.8201C63.7738 36.2532 63.3705 35.6886 62.9445 35.1278C62.8266 35.7584 62.6922 36.3936 62.5414 37.0324ZM62.5414 42.9676C62.8524 42.3896 63.1466 41.8108 63.4237 41.2322C63.6901 41.8842 63.9335 42.5339 64.1536 43.1799C63.7738 43.7468 63.3705 44.3114 62.9445 44.8722C62.8266 44.2416 62.6922 43.6064 62.5414 42.9676ZM63.9882 40C64.2973 40.7068 64.5807 41.4123 64.8378 42.1149C65.1756 41.5658 65.4912 41.0152 65.784 40.4644C65.8663 40.3095 65.9468 40.1547 66.0254 40C65.9468 39.8453 65.8663 39.6905 65.784 39.5357C65.4912 38.9848 65.1756 38.4342 64.8378 37.8851C64.5807 38.5876 64.2973 39.2932 63.9882 40ZM63.1708 46.2086C63.6524 45.6059 64.1087 44.9977 64.5389 44.3856C64.723 45.0035 64.8854 45.617 65.0256 46.2249C65.0651 46.3958 65.1027 46.5661 65.1387 46.7358C65.0227 46.8649 64.9048 46.9936 64.7852 47.1219C64.3598 47.5782 63.9125 48.0283 63.4441 48.4713C63.3776 47.7261 63.2865 46.9713 63.1708 46.2086ZM65.2559 43.325C65.5249 44.1532 65.7567 44.9759 65.9508 45.79C66.5348 45.077 67.0639 44.3543 67.5362 43.6252C67.2687 42.7987 66.9447 41.9637 66.5651 41.1238C66.1669 41.86 65.73 42.5946 65.2559 43.325ZM62.9078 57.5778C63.6959 57.1541 64.4392 56.6938 65.1333 56.1984C64.908 57.0451 64.614 57.8504 64.2511 58.6084C63.6128 59.1552 62.911 59.6476 62.1514 60.0844C62.4503 59.2858 62.7025 58.4487 62.9078 57.5778ZM66.376 55.2282C66.2804 55.7432 66.1626 56.247 66.0222 56.7385C66.3223 56.3446 66.5976 55.9317 66.8468 55.5C67.096 55.0683 67.316 54.6235 67.5071 54.1666C67.1516 54.5339 66.7742 54.8879 66.376 55.2282ZM61.5359 61.5359C62.0087 61.3102 62.4649 61.066 62.9034 60.8032C62.6005 61.195 62.2728 61.5678 61.9203 61.9203C61.5679 62.2728 61.1951 62.6004 60.8032 62.9033C61.066 62.4649 61.3103 62.0086 61.5359 61.5359ZM60.0844 62.1514C59.6477 62.911 59.1552 63.6127 58.6085 64.251C57.8504 64.614 57.0451 64.908 56.1984 65.1333C56.6938 64.4392 57.1541 63.6959 57.5778 62.9078C58.4487 62.7025 59.2858 62.4503 60.0844 62.1514ZM56.7386 66.0222C56.2471 66.1625 55.7432 66.2804 55.2282 66.376C54.8879 66.7742 54.5339 67.1517 54.1666 67.5071C54.6235 67.316 55.0683 67.096 55.5 66.8468C55.9317 66.5976 56.3447 66.3223 56.7386 66.0222ZM56.2807 63.1746C55.794 63.9975 55.2649 64.759 54.6959 65.454C53.8095 65.5992 52.8855 65.6768 51.9295 65.6867C52.5009 65.0062 53.0489 64.278 53.5711 63.5058C54.5009 63.4397 55.4056 63.3292 56.2807 63.1746ZM53.6669 66.5948C52.8181 66.6769 51.9442 66.7038 51.0499 66.6767C50.4366 67.3283 49.7997 67.9271 49.1414 68.4693C50.0177 68.4708 50.8716 68.3953 51.6978 68.2409C52.3911 67.7659 53.0484 67.2155 53.6669 66.5948ZM52.3093 63.5679C51.7717 64.3166 51.2106 65.0148 50.6286 65.6597C49.761 65.6152 48.8705 65.5183 47.961 65.369C48.5691 64.7939 49.1656 64.1818 49.7484 63.5347C50.618 63.5802 51.4727 63.5912 52.3093 63.5679ZM49.7279 66.5987C48.8426 66.5215 47.9402 66.3941 47.0249 66.2173C46.3206 66.828 45.6029 67.3896 44.8747 67.899C45.8008 68.1368 46.7134 68.3011 47.6072 68.3903C48.3366 67.8662 49.0448 67.2676 49.7279 66.5987ZM47.1219 64.7852C46.9936 64.9048 46.8649 65.0227 46.7359 65.1386C46.5661 65.1027 46.3958 65.0651 46.2249 65.0256C45.617 64.8853 45.0035 64.723 44.3857 64.5389C44.9977 64.1087 45.6059 63.6524 46.2086 63.1708C46.9713 63.2865 47.7262 63.3776 48.4713 63.4441C48.0283 63.9125 47.5782 64.3598 47.1219 64.7852ZM45.79 65.9508C44.9759 65.7567 44.1533 65.5248 43.325 65.2558C42.5946 65.7301 41.86 66.1669 41.1238 66.5651C41.9637 66.9447 42.7987 67.2687 43.6252 67.5362C44.3543 67.064 45.077 66.5348 45.79 65.9508ZM44.8722 62.9445C44.3114 63.3705 43.7469 63.7738 43.1799 64.1536C42.5339 63.9335 41.8842 63.6901 41.2323 63.4237C41.8109 63.1466 42.3896 62.8524 42.9676 62.5414C43.6065 62.6922 44.2416 62.8266 44.8722 62.9445ZM42.1149 64.8378C41.4124 64.5807 40.7068 64.2973 40 63.9882C39.2932 64.2973 38.5877 64.5807 37.8851 64.8378C38.4342 65.1756 38.9848 65.4912 39.5357 65.784C39.6905 65.8663 39.8453 65.9468 40 66.0254C40.1547 65.9468 40.3095 65.8663 40.4644 65.784C41.0152 65.4912 41.5658 65.1756 42.1149 64.8378ZM41.5138 62.1712C41.0089 62.4256 40.5041 62.6665 40 62.8939C39.496 62.6665 38.9911 62.4256 38.4862 62.1712C38.9892 62.0339 39.4939 61.8864 40 61.7289C40.5061 61.8864 41.0108 62.0339 41.5138 62.1712ZM38.7677 63.4237C38.1892 63.1466 37.6104 62.8524 37.0324 62.5414C36.3936 62.6922 35.7584 62.8266 35.1278 62.9445C35.6886 63.3705 36.2531 63.7738 36.8201 64.1536C37.4661 63.9335 38.1158 63.6901 38.7677 63.4237ZM38.335 61.1757C37.9461 61.283 37.5585 61.3841 37.1722 61.479C36.8237 61.2874 36.4754 61.0894 36.1276 60.8851C36.5047 60.8557 36.8835 60.8216 37.2639 60.7827C37.6212 60.9187 37.9783 61.0497 38.335 61.1757ZM35.7239 61.8075C35.2736 61.5447 34.8242 61.2717 34.3761 60.9885C33.8466 61.0097 33.3208 61.0215 32.7995 61.0239C33.2214 61.4003 33.6466 61.7637 34.0746 62.1138C34.6204 62.0246 35.1703 61.9225 35.7239 61.8075ZM22.312 50.2122C22.1983 50.072 22.0856 49.9316 21.9738 49.7909C22.0116 49.9748 22.0504 50.1579 22.0902 50.3403C22.2282 50.4659 22.3674 50.591 22.5078 50.7157C22.4418 50.5486 22.3765 50.3807 22.312 50.2122ZM13.1532 24.5C13.4024 24.0683 13.6777 23.6553 13.9779 23.2613C13.8375 23.7529 13.7196 24.2568 13.624 24.7718C13.2258 25.1121 12.8483 25.4662 12.4928 25.8335C12.6839 25.3766 12.904 24.9317 13.1532 24.5ZM15.749 21.3915C15.3861 22.1496 15.0921 22.9549 14.8668 23.8016C15.5608 23.3062 16.3041 22.8459 17.0922 22.4222C17.2975 21.5513 17.5497 20.7142 17.8486 19.9156C17.0891 20.3523 16.3873 20.8447 15.749 21.3915ZM12.4638 36.3748C12.936 35.6457 13.4652 34.9229 14.0493 34.2099C14.2433 35.0241 14.4752 35.8467 14.7442 36.675C14.2699 37.4054 13.8331 38.14 13.4349 38.8762C13.0553 38.0363 12.7312 37.2013 12.4638 36.3748ZM14.9744 33.7751C15.1147 34.383 15.277 34.9965 15.4611 35.6143C15.8914 35.0023 16.3476 34.3941 16.8292 33.7914C16.7135 33.0286 16.6224 32.2738 16.5559 31.5286C16.0875 31.9716 15.6401 32.4218 15.2147 32.8781C15.0951 33.0064 14.9773 33.135 14.8614 33.2641C14.8973 33.4339 14.935 33.6042 14.9744 33.7751ZM14.216 39.5357C14.5088 38.9848 14.8244 38.4342 15.1622 37.8851C15.4193 38.5876 15.7027 39.2932 16.0118 40C15.7027 40.7068 15.4193 41.4124 15.1622 42.1149C14.8244 41.5658 14.5088 41.0152 14.216 40.4644C14.1337 40.3095 14.0532 40.1547 13.9745 40C14.0532 39.8453 14.1337 39.6905 14.216 39.5357ZM15.8464 36.8201C16.0665 37.4661 16.3099 38.1158 16.5763 38.7677C16.8534 38.1891 17.1476 37.6104 17.4586 37.0324C17.3078 36.3935 17.1734 35.7583 17.0555 35.1278C16.6295 35.6885 16.2262 36.2531 15.8464 36.8201ZM15.8464 43.1799C16.0665 42.5339 16.3099 41.8842 16.5763 41.2322C16.8534 41.8108 17.1476 42.3896 17.4586 42.9676C17.3078 43.6065 17.1734 44.2417 17.0555 44.8723C16.6295 44.3115 16.2262 43.7469 15.8464 43.1799ZM17.1061 40C17.3335 40.504 17.5745 41.0089 17.8288 41.5138C17.9662 41.0108 18.1136 40.5061 18.2711 40C18.1136 39.4939 17.9661 38.9892 17.8288 38.4862C17.5745 38.9911 17.3335 39.4959 17.1061 40ZM17.8862 45.9254C17.9754 45.3797 18.0775 44.8297 18.1925 44.2761C18.4553 44.7264 18.7283 45.1758 19.0115 45.6238C18.9903 46.1534 18.9785 46.6792 18.9761 47.2006C18.5997 46.7787 18.2363 46.3534 17.8862 45.9254ZM18.521 42.8278C18.7126 43.1763 18.9106 43.5245 19.1149 43.8724C19.1443 43.4952 19.1784 43.1164 19.2173 42.7361C19.0813 42.3787 18.9503 42.0217 18.8243 41.665C18.717 42.0539 18.6159 42.4415 18.521 42.8278ZM19.9847 48.2906C19.9764 47.8929 19.9738 47.4923 19.9768 47.0889C20.1908 47.4008 20.4098 47.7118 20.6336 48.0218C20.6945 48.3993 20.7596 48.774 20.8288 49.146C20.5414 48.8628 20.26 48.5777 19.9847 48.2906ZM20.0242 45.3525C20.1249 45.5095 20.227 45.6664 20.3303 45.8231C20.3098 45.6447 20.2903 45.4657 20.2716 45.2862C20.198 45.1214 20.1255 44.9566 20.054 44.7918C20.0429 44.9792 20.0329 45.1661 20.0242 45.3525ZM18.0797 18.0797C17.7273 18.4321 17.3996 18.8049 17.0968 19.1968C17.5352 18.934 17.9914 18.6897 18.4641 18.4641C18.6897 17.9914 18.934 17.5352 19.1968 17.0967C18.8049 17.3996 18.4322 17.7272 18.0797 18.0797ZM19.9156 17.8486C20.3524 17.089 20.8448 16.3873 21.3915 15.749C22.1496 15.3861 22.9549 15.092 23.8017 14.8668C23.3062 15.5608 22.8459 16.3041 22.4222 17.0922C21.5514 17.2975 20.7142 17.5497 19.9156 17.8486ZM23.7194 16.8254C24.206 16.0025 24.7352 15.241 25.3041 14.546C26.1905 14.4008 27.1145 14.3233 28.0705 14.3133C27.4991 14.9938 26.9511 15.722 26.4289 16.4942C25.4991 16.5603 24.5945 16.6708 23.7194 16.8254ZM26.3332 13.4052C27.1819 13.3231 28.0558 13.2962 28.9501 13.3233C29.5634 12.6717 30.2003 12.0729 30.8586 11.5307C29.9824 11.5292 29.1284 11.6047 28.3022 11.7591C27.6089 12.2341 26.9516 12.7845 26.3332 13.4052ZM27.6907 16.4321C28.2282 15.6834 28.7894 14.9852 29.3714 14.3403C30.239 14.3848 31.1294 14.4817 32.0389 14.631C31.4309 15.2061 30.8344 15.8182 30.2516 16.4653C29.3819 16.4198 28.5273 16.4088 27.6907 16.4321ZM30.2721 13.4013C31.1574 13.4785 32.0598 13.6059 32.9751 13.7827C33.6793 13.1719 34.3971 12.6104 35.1252 12.1009C34.1992 11.8632 33.2866 11.6989 32.3928 11.6097C31.6634 12.1338 30.9552 12.7324 30.2721 13.4013ZM32.8781 15.2148C33.0064 15.0951 33.135 14.9773 33.2641 14.8613C33.4339 14.8973 33.6042 14.935 33.7752 14.9744C34.383 15.1147 34.9965 15.277 35.6143 15.4611C35.0023 15.8914 34.3941 16.3476 33.7914 16.8292C33.0286 16.7135 32.2738 16.6224 31.5287 16.5559C31.9716 16.0875 32.4218 15.6402 32.8781 15.2148ZM34.2099 14.0492C35.0241 14.2433 35.8467 14.4752 36.675 14.7442C37.4054 14.2699 38.14 13.8331 38.8762 13.4349C38.0363 13.0553 37.2013 12.7312 36.3748 12.4638C35.6457 12.936 34.923 13.4652 34.2099 14.0492ZM35.1278 17.0555C35.6886 16.6295 36.2531 16.2262 36.8201 15.8464C37.4661 16.0665 38.1158 16.3099 38.7677 16.5763C38.1892 16.8534 37.6104 17.1476 37.0324 17.4586C36.3935 17.3078 35.7584 17.1734 35.1278 17.0555ZM37.8851 15.1622C38.5877 15.4193 39.2932 15.7027 40 16.0118C40.7068 15.7027 41.4124 15.4193 42.1149 15.1622C41.5658 14.8244 41.0152 14.5088 40.4644 14.216C40.3095 14.1337 40.1547 14.0532 40 13.9746C39.8453 14.0532 39.6905 14.1337 39.5357 14.216C38.9848 14.5088 38.4342 14.8244 37.8851 15.1622ZM38.4862 17.8288C38.9911 17.5744 39.496 17.3335 40 17.1061C40.5041 17.3335 41.0089 17.5744 41.5138 17.8288C41.0108 17.9661 40.5061 18.1136 40 18.2711C39.4939 18.1136 38.9892 17.9661 38.4862 17.8288ZM41.2323 16.5763C41.8109 16.8534 42.3896 17.1476 42.9676 17.4586C43.6065 17.3078 44.2416 17.1734 44.8722 17.0555C44.3114 16.6295 43.7469 16.2262 43.1799 15.8464C42.5339 16.0665 41.8842 16.3099 41.2323 16.5763ZM41.665 18.8243C42.0539 18.717 42.4415 18.6159 42.8278 18.521C43.1763 18.7126 43.5246 18.9106 43.8724 19.1149C43.4953 19.1443 43.1164 19.1784 42.7361 19.2173C42.3787 19.0813 42.0217 18.9503 41.665 18.8243ZM44.2761 18.1925C44.7264 18.4553 45.1758 18.7283 45.6239 19.0115C46.1535 18.9903 46.6792 18.9785 47.2006 18.9761C46.7787 18.5997 46.3534 18.2363 45.9254 17.8862C45.3797 17.9754 44.8297 18.0775 44.2761 18.1925ZM57.688 29.7878C57.8017 29.9279 57.9145 30.0683 58.0261 30.209C57.9884 30.0252 57.9496 29.8421 57.9098 29.6598C57.7719 29.5342 57.6327 29.409 57.4923 29.2844C57.5583 29.4515 57.6236 29.6193 57.688 29.7878ZM59.1712 30.8541C59.2404 31.226 59.3055 31.6007 59.3664 31.9781C59.5902 32.2881 59.8092 32.5991 60.0232 32.911C60.0262 32.5077 60.0235 32.107 60.0153 31.7094C59.7399 31.4224 59.4586 31.1372 59.1712 30.8541ZM23.2614 13.9779C23.7529 13.8375 24.2568 13.7196 24.7718 13.624C25.1121 13.2258 25.4661 12.8483 25.8335 12.4928C25.3766 12.684 24.9317 12.904 24.5 13.1532C24.0683 13.4024 23.6553 13.6777 23.2614 13.9779ZM57.688 50.2122C57.8017 50.0721 57.9144 49.9316 58.0261 49.7909C57.9884 49.9748 57.9496 50.1579 57.9098 50.3402C57.7718 50.4659 57.6327 50.591 57.4923 50.7156C57.5583 50.5485 57.6235 50.3807 57.688 50.2122ZM43.8724 60.8851C43.4953 60.8557 43.1164 60.8216 42.7361 60.7827C42.3787 60.9187 42.0217 61.0497 41.665 61.1757C42.0538 61.283 42.4415 61.3841 42.8278 61.4791C43.1763 61.2874 43.5246 61.0894 43.8724 60.8851ZM44.2761 61.8075C44.7264 61.5447 45.1758 61.2717 45.6239 60.9885C46.1534 61.0097 46.6792 61.0215 47.2006 61.0239C46.7787 61.4003 46.3534 61.7637 45.9254 62.1138C45.3797 62.0246 44.8297 61.9225 44.2761 61.8075ZM35.6143 64.5389C35.0023 64.1087 34.3941 63.6524 33.7914 63.1708C33.0287 63.2865 32.2738 63.3776 31.5287 63.4441C31.9717 63.9125 32.4218 64.3598 32.8781 64.7852C33.0064 64.9049 33.1351 65.0227 33.2641 65.1387C33.4339 65.1027 33.6042 65.0651 33.7751 65.0256C34.383 64.8853 34.9965 64.723 35.6143 64.5389ZM34.21 65.9508C35.0241 65.7567 35.8468 65.5248 36.675 65.2558C37.4054 65.7301 38.14 66.1669 38.8762 66.5651C38.0363 66.9447 37.2013 67.2688 36.3748 67.5362C35.6457 67.064 34.923 66.5348 34.21 65.9508ZM32.039 65.369C31.4309 64.7939 30.8344 64.1818 30.2516 63.5347C29.382 63.5802 28.5273 63.5912 27.6907 63.5679C28.2283 64.3166 28.7894 65.0148 29.3714 65.6597C30.239 65.6152 31.1295 65.5183 32.039 65.369ZM30.2721 66.5987C31.1574 66.5215 32.0598 66.3941 32.9751 66.2173C33.6794 66.8281 34.3971 67.3896 35.1253 67.899C34.1992 68.1368 33.2866 68.3011 32.3928 68.3903C31.6634 67.8662 30.9552 67.2676 30.2721 66.5987ZM28.0706 65.6867C27.4991 65.0062 26.9511 64.278 26.4289 63.5058C25.4991 63.4397 24.5945 63.3292 23.7194 63.1746C24.206 63.9975 24.7352 64.759 25.3041 65.454C26.1905 65.5992 27.1145 65.6768 28.0706 65.6867ZM26.3332 66.5948C27.1819 66.6769 28.0558 66.7038 28.9501 66.6767C29.5634 67.3283 30.2003 67.9272 30.8586 68.4693C29.9823 68.4708 29.1284 68.3953 28.3022 68.2409C27.6089 67.7659 26.9516 67.2155 26.3332 66.5948ZM23.8017 65.1333C23.3062 64.4392 22.8459 63.6959 22.4222 62.9078C21.5513 62.7025 20.7142 62.4503 19.9156 62.1514C20.3524 62.911 20.8448 63.6127 21.3916 64.2511C22.1496 64.614 22.9549 64.908 23.8017 65.1333ZM23.2614 66.0222C23.7529 66.1626 24.2568 66.2804 24.7718 66.376C25.1121 66.7742 25.4661 67.1517 25.8334 67.5071C25.3766 67.316 24.9317 67.096 24.5 66.8468C24.0683 66.5976 23.6554 66.3223 23.2614 66.0222ZM19.1968 62.9033C18.934 62.4649 18.6898 62.0087 18.4641 61.5359C17.9914 61.3103 17.5352 61.066 17.0967 60.8032C17.3996 61.1951 17.7272 61.5679 18.0797 61.9203C18.4322 62.2728 18.805 62.6005 19.1968 62.9033ZM15.749 58.6085C16.3873 59.1552 17.089 59.6477 17.8486 60.0844C17.5497 59.2858 17.2975 58.4487 17.0922 57.5778C16.3041 57.1541 15.5608 56.6938 14.8667 56.1984C15.092 57.0451 15.3861 57.8504 15.749 58.6085ZM13.624 55.2282C13.7196 55.7432 13.8375 56.2471 13.9778 56.7386C13.6777 56.3447 13.4024 55.9317 13.1532 55.5C12.904 55.0683 12.684 54.6235 12.4928 54.1666C12.8483 54.5339 13.2258 54.8879 13.624 55.2282ZM14.8613 46.7359C14.9773 46.8649 15.0952 46.9936 15.2148 47.1219C15.6402 47.5782 16.0875 48.0284 16.5559 48.4713C16.6224 47.7262 16.7135 46.9714 16.8292 46.2086C16.3476 45.6059 15.8913 44.9977 15.4611 44.3857C15.277 45.0035 15.1147 45.617 14.9744 46.2249C14.9349 46.3958 14.8973 46.5661 14.8613 46.7359ZM14.0492 45.7901C14.2433 44.9759 14.4751 44.1533 14.7441 43.325C14.2699 42.5946 13.8331 41.86 13.4349 41.1238C13.0553 41.9637 12.7312 42.7987 12.4638 43.6252C12.936 44.3543 13.4652 45.077 14.0492 45.7901ZM18.521 37.1722C18.6159 37.5585 18.717 37.9461 18.8243 38.335C18.9503 37.9783 19.0813 37.6212 19.2173 37.2639C19.1784 36.8835 19.1443 36.5047 19.1149 36.1276C18.9106 36.4754 18.7126 36.8237 18.521 37.1722ZM19.0115 34.3761C18.7284 34.8242 18.4553 35.2736 18.1925 35.7239C18.0775 35.1703 17.9754 34.6203 17.8862 34.0746C18.2363 33.6466 18.5997 33.2213 18.9761 32.7994C18.9786 33.3208 18.9903 33.8465 19.0115 34.3761ZM20.0242 34.6475C20.0329 34.8339 20.0429 35.0208 20.054 35.2082C20.1255 35.0434 20.198 34.8786 20.2716 34.7138C20.2903 34.5343 20.3098 34.3553 20.3303 34.1768C20.227 34.3335 20.125 34.4904 20.0242 34.6475ZM20.6336 31.9782C20.4098 32.2881 20.1908 32.5991 19.9768 32.911C19.9738 32.5076 19.9765 32.107 19.9847 31.7094C20.2601 31.4223 20.5414 31.1372 20.8288 30.8541C20.7596 31.226 20.6945 31.6007 20.6336 31.9782ZM22.312 29.7879C22.1983 29.928 22.0855 30.0684 21.9738 30.2091C22.0116 30.0252 22.0504 29.8421 22.0902 29.6597C22.2282 29.5341 22.3673 29.409 22.5077 29.2844C22.4417 29.4515 22.3765 29.6193 22.312 29.7879ZM36.1276 19.1149C36.5047 19.1443 36.8835 19.1784 37.2639 19.2173C37.6212 19.0813 37.9783 18.9503 38.335 18.8243C37.9461 18.717 37.5585 18.6159 37.1722 18.521C36.8237 18.7126 36.4754 18.9106 36.1276 19.1149ZM35.7239 18.1925C35.2736 18.4553 34.8242 18.7283 34.3761 19.0115C33.8465 18.9903 33.3208 18.9786 32.7994 18.9761C33.2213 18.5997 33.6466 18.2363 34.0746 17.8862C34.6203 17.9754 35.1703 18.0775 35.7239 18.1925ZM44.3857 15.4611C44.9977 15.8914 45.6059 16.3476 46.2086 16.8292C46.9714 16.7135 47.7262 16.6224 48.4713 16.5559C48.0284 16.0875 47.5782 15.6402 47.1219 15.2148C46.9936 15.0951 46.865 14.9773 46.7359 14.8614C46.5661 14.8973 46.3958 14.935 46.2249 14.9744C45.617 15.1147 45.0035 15.277 44.3857 15.4611ZM45.7901 14.0492C44.9759 14.2433 44.1533 14.4752 43.325 14.7442C42.5946 14.2699 41.86 13.8331 41.1238 13.4349C41.9637 13.0553 42.7987 12.7312 43.6252 12.4638C44.3543 12.936 45.077 13.4652 45.7901 14.0492ZM47.9611 14.631C48.5691 15.2061 49.1656 15.8182 49.7484 16.4653C50.6181 16.4198 51.4727 16.4088 52.3093 16.4321C51.7718 15.6834 51.2106 14.9852 50.6286 14.3404C49.761 14.3848 48.8706 14.4817 47.9611 14.631ZM49.7279 13.4013C48.8426 13.4785 47.9402 13.6059 47.0249 13.7827C46.3207 13.1719 45.6029 12.6104 44.8748 12.1009C45.8008 11.8632 46.7134 11.6989 47.6072 11.6097C48.3366 12.1338 49.0448 12.7324 49.7279 13.4013ZM51.9295 14.3133C52.5009 14.9938 53.0489 15.722 53.5711 16.4942C54.5009 16.5603 55.4055 16.6708 56.2806 16.8254C55.794 16.0025 55.2648 15.241 54.6959 14.546C53.8095 14.4008 52.8855 14.3233 51.9295 14.3133ZM53.6669 13.4052C52.8181 13.3231 51.9442 13.2962 51.0499 13.3233C50.4366 12.6717 49.7997 12.0729 49.1414 11.5307C50.0176 11.5292 50.8716 11.6047 51.6978 11.7591C52.3911 12.2341 53.0484 12.7845 53.6669 13.4052ZM56.1984 14.8668C56.6938 15.5608 57.1541 16.3041 57.5778 17.0922C58.4487 17.2975 59.2858 17.5497 60.0844 17.8486C59.6477 17.0891 59.1553 16.3873 58.6085 15.749C57.8504 15.3861 57.0451 15.0921 56.1984 14.8668ZM56.7387 13.9779C56.2471 13.8375 55.7432 13.7196 55.2282 13.624C54.8879 13.2258 54.5339 12.8483 54.1665 12.4928C54.6234 12.684 55.0683 12.904 55.5 13.1532C55.9317 13.4025 56.3447 13.6777 56.7387 13.9779ZM60.8032 17.0968C61.066 17.5352 61.3103 17.9914 61.5359 18.4641C62.0087 18.6898 62.4648 18.934 62.9033 19.1968C62.6004 18.8049 62.2728 18.4322 61.9203 18.0797C61.5678 17.7272 61.1951 17.3996 60.8032 17.0968ZM64.251 21.3915C63.6127 20.8448 62.911 20.3524 62.1514 19.9156C62.4503 20.7142 62.7025 21.5514 62.9078 22.4222C63.6959 22.8459 64.4392 23.3062 65.1332 23.8017C64.908 22.9549 64.6139 22.1496 64.251 21.3915ZM65.1386 33.2641C65.0227 33.1351 64.9049 33.0064 64.7853 32.8781C64.3598 32.4218 63.9125 31.9717 63.4441 31.5287C63.3776 32.2738 63.2865 33.0287 63.1708 33.7914C63.6524 34.3941 64.1087 35.0023 64.5389 35.6143C64.723 34.9965 64.8853 34.383 65.0256 33.7751C65.065 33.6042 65.1027 33.4339 65.1386 33.2641ZM65.2558 36.675C65.5248 35.8467 65.7567 35.0241 65.9507 34.2099C66.5348 34.923 67.064 35.6457 67.5362 36.3748C67.2687 37.2013 66.9447 38.0363 66.5651 38.8762C66.1669 38.14 65.73 37.4054 65.2558 36.675ZM61.4791 42.8277C61.3841 42.4415 61.283 42.0538 61.1757 41.665C61.0497 42.0217 60.9187 42.3788 60.7827 42.7361C60.8216 43.1164 60.8557 43.4952 60.8851 43.8724C61.0894 43.5245 61.2874 43.1763 61.4791 42.8277ZM60.9886 45.6238C61.2717 45.1758 61.5447 44.7264 61.8075 44.2761C61.9225 44.8296 62.0246 45.3796 62.1139 45.9254C61.7637 46.3534 61.4003 46.7786 61.0239 47.2005C61.0215 46.6791 61.0097 46.1534 60.9886 45.6238ZM60.0233 47.0889C60.0262 47.4923 60.0236 47.8929 60.0153 48.2906C59.74 48.5776 59.4586 48.8628 59.1712 49.1459C59.2404 48.774 59.3055 48.3993 59.3664 48.0218C59.5902 47.7119 59.8092 47.4008 60.0233 47.0889ZM59.9758 45.3525C59.8751 45.5095 59.773 45.6664 59.6697 45.8232C59.6902 45.6447 59.7097 45.4657 59.7284 45.2862C59.802 45.1214 59.8745 44.9566 59.946 44.7918C59.9572 44.9792 59.9671 45.1661 59.9758 45.3525ZM66.376 24.7718C66.2804 24.2568 66.1625 23.7529 66.0222 23.2614C66.3223 23.6554 66.5975 24.0683 66.8468 24.5C67.096 24.9317 67.316 25.3766 67.5071 25.8335C67.1516 25.4661 66.7742 25.1121 66.376 24.7718ZM60.4243 39.9999C60.4528 39.8217 60.4802 39.6438 60.5066 39.4661C60.5658 39.6442 60.6238 39.8222 60.6805 40C60.6238 40.1778 60.5658 40.3557 60.5066 40.5339C60.4802 40.3561 60.4528 40.1782 60.4243 39.9999ZM61.0052 48.7006C61.4553 48.2228 61.8892 47.7399 62.3066 47.2527C62.3952 47.9514 62.4622 48.642 62.5076 49.3229C61.994 49.7723 61.4583 50.2132 60.9017 50.6446C60.951 50.005 60.9856 49.3567 61.0052 48.7006ZM59.1924 59.1924C60.0735 58.8879 60.9187 58.5471 61.7239 58.1712C61.4668 59.092 61.1528 59.9645 60.7831 60.7831C59.9645 61.1528 59.092 61.4668 58.1712 61.7239C58.5471 60.9187 58.8879 60.0735 59.1924 59.1924ZM49.4333 69.4677C48.9221 69.4761 48.4049 69.4596 47.8827 69.4186C47.4509 69.7152 47.0113 69.9881 46.5645 70.2364C47.0553 70.1701 47.5419 70.0727 48.0234 69.9437C48.5049 69.8147 48.975 69.6557 49.4333 69.4677ZM46.3179 69.2259C45.4768 69.0854 44.6257 68.8853 43.7689 68.6276C43.0079 69.0983 42.2377 69.5119 41.4615 69.8652C42.3075 70.0935 43.1519 70.2415 43.9899 70.3062C44.7826 70.0268 45.5599 69.6653 46.3179 69.2259ZM42.5121 68.2101C41.677 67.9065 40.8383 67.5498 40 67.1422C39.1617 67.5498 38.323 67.9065 37.4879 68.2101C38.3208 68.6794 39.1597 69.0743 40 69.3918C40.8402 69.0743 41.6792 68.6794 42.5121 68.2101ZM32.7472 62.3066C32.2601 61.8892 31.7772 61.4553 31.2994 61.0052C30.6433 60.9856 29.995 60.951 29.3553 60.9016C29.7868 61.4583 30.2277 61.994 30.6771 62.5076C31.358 62.4622 32.0486 62.3952 32.7472 62.3066ZM25.8772 54.8779C25.7702 54.7336 25.6638 54.5883 25.5579 54.4422C25.4117 54.3363 25.2665 54.2299 25.1222 54.1229C25.2062 54.2907 25.2911 54.4575 25.3767 54.6233C25.5425 54.709 25.7093 54.7938 25.8772 54.8779ZM19.2169 19.2169C18.8472 20.0355 18.5332 20.908 18.2761 21.8288C19.0814 21.453 19.9266 21.1121 20.8076 20.8076C21.1121 19.9266 21.453 19.0813 21.8288 18.2761C20.908 18.5332 20.0355 18.8472 19.2169 19.2169ZM17.4924 30.677C17.5379 31.358 17.6048 32.0485 17.6934 32.7472C18.1108 32.26 18.5448 31.7771 18.9948 31.2993C19.0144 30.6432 19.0491 29.9949 19.0984 29.3553C18.5417 29.7867 18.006 30.2276 17.4924 30.677ZM19.3195 40C19.3762 40.1778 19.4342 40.3557 19.4934 40.5338C19.5198 40.3561 19.5472 40.1781 19.5757 39.9999C19.5472 39.8217 19.5198 39.6438 19.4934 39.4661C19.4342 39.6442 19.3762 39.8222 19.3195 40ZM33.6821 10.7741C34.5232 10.9145 35.3743 11.1147 36.2311 11.3723C36.9921 10.9017 37.7623 10.4881 38.5384 10.1348C37.6925 9.90652 36.8481 9.7585 36.0101 9.69377C35.2174 9.97318 34.4401 10.3347 33.6821 10.7741ZM37.4878 11.7899C38.323 12.0935 39.1617 12.4502 40 12.8578C40.8383 12.4502 41.677 12.0935 42.5122 11.7899C41.6792 11.3205 40.8403 10.9257 40 10.6082C39.1597 10.9257 38.3208 11.3205 37.4878 11.7899ZM47.2528 17.6934C47.7399 18.1108 48.2228 18.5447 48.7007 18.9948C49.3568 19.0144 50.0051 19.049 50.6447 19.0984C50.2133 18.5417 49.7723 18.006 49.323 17.4924C48.642 17.5378 47.9515 17.6048 47.2528 17.6934ZM54.1229 25.1222C54.2299 25.2665 54.3363 25.4117 54.4422 25.5579C54.5884 25.6638 54.7336 25.7702 54.8779 25.8772C54.7938 25.7094 54.709 25.5425 54.6233 25.3767C54.4575 25.2911 54.2907 25.2062 54.1229 25.1222ZM30.5668 10.5322C31.0779 10.5239 31.5951 10.5404 32.1173 10.5814C32.5491 10.2848 32.9887 10.0119 33.4355 9.76356C32.9448 9.82993 32.4581 9.92729 31.9766 10.0563C31.4951 10.1853 31.025 10.3443 30.5668 10.5322ZM54.4422 54.4422C54.5883 54.3363 54.7335 54.2298 54.8778 54.1228C54.7938 54.2907 54.7089 54.4575 54.6233 54.6233C54.4575 54.7089 54.2907 54.7938 54.1229 54.8778C54.2299 54.7335 54.3363 54.5883 54.4422 54.4422ZM40.5338 60.5066C40.3561 60.4802 40.1782 60.4528 39.9999 60.4243C39.8217 60.4528 39.6438 60.4802 39.4661 60.5066C39.6442 60.5658 39.8222 60.6238 40 60.6805C40.1778 60.6238 40.3557 60.5658 40.5338 60.5066ZM29.4127 62.5676C28.9328 61.9937 28.4635 61.3955 28.0059 60.7744C27.2392 60.6887 26.4865 60.5813 25.7495 60.4527C26.0562 61.0198 26.3752 61.5684 26.7059 62.0974C26.7988 62.2462 26.8926 62.3933 26.9873 62.5387C27.1605 62.5479 27.3348 62.5556 27.5101 62.5618C28.1336 62.5836 28.7682 62.5856 29.4127 62.5676ZM25.7442 62.4441C25.3058 61.7312 24.888 60.9856 24.4925 60.2097C23.6407 60.0285 22.8124 59.818 22.0103 59.579C22.3358 60.4413 22.6971 61.2609 23.0924 62.0345C23.9419 62.2161 24.8271 62.3529 25.7442 62.4441ZM21.8288 61.7239C21.453 60.9187 21.1121 60.0735 20.8076 59.1924C19.9266 58.8879 19.0814 58.5471 18.2761 58.1712C18.5332 59.0921 18.8472 59.9645 19.2169 60.7831C20.0355 61.1528 20.908 61.4668 21.8288 61.7239ZM11.7899 42.5121C12.0935 41.677 12.4502 40.8383 12.8578 40C12.4502 39.1617 12.0935 38.323 11.7899 37.4878C11.3205 38.3207 10.9257 39.1597 10.6082 40C10.9257 40.8402 11.3205 41.6792 11.7899 42.5121ZM21.1822 29.1355C20.7928 29.495 20.4127 29.8584 20.0423 30.2254C20.0745 29.6609 20.1182 29.1032 20.1733 28.553C20.6223 28.2302 21.0833 27.9135 21.5561 27.6034C21.4235 28.1076 21.2988 28.6185 21.1822 29.1355ZM23.3697 27.2391C23.0733 27.4806 22.7813 27.7243 22.4938 27.9702C22.5953 27.5798 22.7016 27.1935 22.8125 26.8115C23.1527 26.6055 23.4983 26.4029 23.8492 26.2038C23.6861 26.5452 23.5262 26.8903 23.3697 27.2391ZM25.5579 25.5578C25.4117 25.6637 25.2665 25.7702 25.1221 25.8772C25.2062 25.7093 25.291 25.5425 25.3767 25.3767C25.5425 25.291 25.7093 25.2062 25.8772 25.1221C25.7702 25.2664 25.6638 25.4117 25.5579 25.5578ZM39.4661 19.4934C39.6438 19.5198 39.8218 19.5472 40 19.5757C40.1782 19.5472 40.3561 19.5198 40.5338 19.4934C40.3557 19.4342 40.1778 19.3762 40 19.3195C39.8222 19.3762 39.6442 19.4342 39.4661 19.4934ZM50.5874 17.4324C51.0672 18.0063 51.5366 18.6045 51.9941 19.2256C52.7608 19.3113 53.5135 19.4187 54.2505 19.5473C53.9438 18.9802 53.6248 18.4316 53.2941 17.9026C53.2012 17.7538 53.1074 17.6067 53.0127 17.4613C52.8394 17.4521 52.6651 17.4444 52.4898 17.4382C51.8664 17.4164 51.2318 17.4144 50.5874 17.4324ZM54.2558 17.5559C54.6942 18.2688 55.112 19.0144 55.5075 19.7903C56.3592 19.9715 57.1876 20.182 57.9897 20.421C57.6642 19.5587 57.3029 18.7391 56.9076 17.9656C56.0581 17.7839 55.1729 17.6471 54.2558 17.5559ZM58.1712 18.2761C58.547 19.0813 58.8879 19.9266 59.1924 20.8076C60.0735 21.1121 60.9187 21.453 61.7239 21.8288C61.4669 20.908 61.1528 20.0355 60.7832 19.2169C59.9645 18.8472 59.092 18.5332 58.1712 18.2761ZM67.1422 40C67.5498 39.1617 67.9065 38.323 68.2101 37.4878C68.6794 38.3207 69.0743 39.1597 69.3918 40C69.0743 40.8402 68.6794 41.6792 68.2101 42.5121C67.9064 41.677 67.5498 40.8383 67.1422 40ZM58.8178 50.8644C59.2073 50.5049 59.5873 50.1415 59.9577 49.7746C59.9256 50.339 59.8818 50.8967 59.8268 51.4469C59.3778 51.7697 58.9167 52.0864 58.4439 52.3966C58.5765 51.8923 58.7012 51.3815 58.8178 50.8644ZM57.5062 52.0298C57.4047 52.4202 57.2984 52.8065 57.1875 53.1884C56.8473 53.3944 56.5017 53.597 56.1508 53.7961C56.3139 53.4548 56.4738 53.1097 56.6303 52.7609C56.9267 52.5194 57.2187 52.2757 57.5062 52.0298ZM55.5075 60.2097C56.3593 60.0285 57.1876 59.818 57.9897 59.579C57.6642 60.4413 57.3029 61.2609 56.9076 62.0344C56.0582 62.2161 55.1729 62.3529 54.2558 62.4441C54.6942 61.7312 55.112 60.9856 55.5075 60.2097ZM41.485 70.9052C40.9891 70.781 40.4938 70.6311 40 70.4564C39.5062 70.6311 39.0109 70.781 38.515 70.9052C39.0062 70.9681 39.5015 71 40 71C40.4985 71 40.9938 70.9681 41.485 70.9052ZM38.5384 69.8652C37.7623 69.5119 36.9921 69.0983 36.2311 68.6276C35.3743 68.8853 34.5232 69.0854 33.6821 69.2259C34.4401 69.6653 35.2174 70.0268 36.0101 70.3062C36.8481 70.2415 37.6925 70.0935 38.5384 69.8652ZM23.8492 53.7962C23.6861 53.4549 23.5262 53.1097 23.3697 52.7609C23.0733 52.5195 22.7813 52.2757 22.4938 52.0298C22.5953 52.4202 22.7016 52.8065 22.8125 53.1884C23.1527 53.3944 23.4984 53.5971 23.8492 53.7962ZM23.0924 17.9655C22.6971 18.7391 22.3358 19.5587 22.0103 20.421C22.8124 20.182 23.6407 19.9715 24.4925 19.7903C24.888 19.0144 25.3057 18.2688 25.7442 17.5559C24.8271 17.6471 23.9419 17.7839 23.0924 17.9655ZM41.4616 10.1348C42.2377 10.4881 43.0079 10.9017 43.7689 11.3724C44.6258 11.1147 45.4768 10.9146 46.3179 10.7741C45.5599 10.3347 44.7825 9.97318 43.9899 9.69376C43.1519 9.7585 42.3075 9.90651 41.4616 10.1348ZM56.1508 26.2039C56.314 26.5452 56.4738 26.8903 56.6303 27.2392C56.9268 27.4806 57.2187 27.7244 57.5062 27.9702C57.4047 27.5798 57.2984 27.1935 57.1875 26.8116C56.8473 26.6056 56.5017 26.403 56.1508 26.2039ZM38.515 9.09484C39.0109 9.21903 39.5062 9.3689 40 9.54361C40.4938 9.3689 40.9891 9.21903 41.485 9.09483C40.9937 9.03191 40.4985 9 40 9C39.5015 9 39.0063 9.03191 38.515 9.09484ZM49.3229 62.5076C49.7723 61.994 50.2132 61.4583 50.6446 60.9017C50.005 60.951 49.3567 60.9856 48.7006 61.0052C48.2228 61.4553 47.7399 61.8892 47.2528 62.3066C47.9514 62.3952 48.642 62.4622 49.3229 62.5076ZM51.9941 60.7744C51.5365 61.3955 51.0672 61.9937 50.5873 62.5676C51.2318 62.5856 51.8664 62.5836 52.4898 62.5618C52.6651 62.5556 52.8394 62.5479 53.0127 62.5387C53.1074 62.3933 53.2012 62.2462 53.2941 62.0974C53.6248 61.5684 53.9438 61.0198 54.2505 60.4528C53.5135 60.5813 52.7608 60.6887 51.9941 60.7744ZM32.1173 69.4186C32.5491 69.7152 32.9887 69.9881 33.4355 70.2364C32.9447 70.1701 32.4581 70.0727 31.9766 69.9437C31.4951 69.8147 31.025 69.6557 30.5668 69.4678C31.0779 69.4761 31.5951 69.4596 32.1173 69.4186ZM17.4924 49.323C18.006 49.7723 18.5417 50.2133 19.0983 50.6447C19.049 50.0051 19.0144 49.3568 18.9948 48.7007C18.5447 48.2229 18.1108 47.74 17.6934 47.2528C17.6048 47.9515 17.5379 48.642 17.4924 49.323ZM21.5561 52.3966C21.0833 52.0865 20.6222 51.7698 20.1733 51.447C20.1182 50.8967 20.0745 50.3391 20.0423 49.7746C20.4127 50.1416 20.7927 50.505 21.1822 50.8645C21.2988 51.3815 21.4235 51.8923 21.5561 52.3966ZM27.5101 17.4382C28.1336 17.4164 28.7682 17.4144 29.4126 17.4324C28.9328 18.0063 28.4634 18.6045 28.0059 19.2256C27.2392 19.3113 26.4865 19.4187 25.7495 19.5473C26.0562 18.9802 26.3752 18.4316 26.7059 17.9026C26.7988 17.7538 26.8926 17.6067 26.9873 17.4613C27.1605 17.4521 27.3348 17.4444 27.5101 17.4382ZM30.677 17.4924C30.2277 18.006 29.7867 18.5417 29.3553 19.0984C29.9949 19.0491 30.6432 19.0144 31.2994 18.9948C31.7772 18.5447 32.2601 18.1108 32.7472 17.6934C32.0485 17.6048 31.358 17.5379 30.677 17.4924ZM48.0234 10.0563C47.5419 9.92728 47.0552 9.82992 46.5644 9.76355C47.0113 10.0119 47.4509 10.2848 47.8827 10.5814C48.4049 10.5404 48.9221 10.5239 49.4332 10.5322C48.975 10.3443 48.5049 10.1853 48.0234 10.0563ZM58.4439 27.6034C58.9167 27.9135 59.3777 28.2302 59.8267 28.553C59.8818 29.1033 59.9255 29.6609 59.9577 30.2254C59.5873 29.8585 59.2073 29.4951 58.8178 29.1356C58.7012 28.6185 58.5765 28.1077 58.4439 27.6034ZM60.9016 29.3553C60.951 29.9949 60.9856 30.6433 61.0052 31.2994C61.4553 31.7772 61.8892 32.2601 62.3066 32.7473C62.3952 32.0486 62.4622 31.358 62.5076 30.6771C61.994 30.2277 61.4583 29.7867 60.9016 29.3553Z" fill="black"/>
</svg>
