<?xml version="1.0" standalone="no"?>
<!DOCTYPE svg PUBLIC "-//W3C//DTD SVG 20010904//EN"
 "http://www.w3.org/TR/2001/REC-SVG-20010904/DTD/svg10.dtd">
<svg version="1.0" xmlns="http://www.w3.org/2000/svg"
 width="700.000000pt" height="700.000000pt" viewBox="0 0 700.000000 700.000000"
 preserveAspectRatio="xMidYMid meet">
<metadata>
Created by potrace 1.14, written by Peter Selinger 2001-2017
</metadata>
<g transform="translate(0.000000,700.000000) scale(0.100000,-0.100000)"
fill="#000000" stroke="none">
<path d="M3358 5685 c-2 -2 -39 -6 -83 -10 -44 -4 -114 -14 -155 -22 -41 -8
-86 -17 -100 -19 -208 -40 -529 -177 -725 -310 -144 -97 -226 -165 -346 -285
-358 -358 -576 -824 -628 -1339 -9 -96 -7 -357 3 -440 81 -619 375 -1138 850
-1499 167 -127 388 -248 587 -320 97 -35 289 -86 363 -96 27 -3 52 -8 55 -9
40 -24 592 -24 631 -1 3 1 25 6 50 9 70 9 143 24 185 37 17 5 59 17 95 28 467
136 902 462 1186 888 61 91 173 303 202 383 62 168 92 264 112 370 6 30 13 64
15 75 37 181 39 524 5 714 -5 31 -12 70 -15 88 -16 100 -71 280 -121 401 -201
486 -572 890 -1031 1121 -164 82 -383 161 -518 187 -11 2 -31 6 -45 9 -117 23
-262 38 -402 40 -93 1 -169 1 -170 0z m327 -830 c316 -39 641 -217 855 -470
218 -258 333 -581 325 -910 -4 -132 -11 -190 -41 -310 -119 -476 -500 -863
-969 -983 -153 -40 -202 -46 -355 -46 -121 0 -186 7 -288 28 -511 109 -924
515 -1043 1025 -43 185 -45 445 -5 599 8 29 14 53 13 55 -4 13 67 200 105 275
195 381 569 659 983 729 119 20 294 24 420 8z"/>
</g>
</svg>
