<?xml version="1.0" standalone="no"?>
<!DOCTYPE svg PUBLIC "-//W3C//DTD SVG 20010904//EN"
 "http://www.w3.org/TR/2001/REC-SVG-20010904/DTD/svg10.dtd">
<svg version="1.0" xmlns="http://www.w3.org/2000/svg"
 width="700.000000pt" height="700.000000pt" viewBox="0 0 700.000000 700.000000"
 preserveAspectRatio="xMidYMid meet">
<metadata>
Created by potrace 1.14, written by Peter Selinger 2001-2017
</metadata>
<g transform="translate(0.000000,700.000000) scale(0.100000,-0.100000)"
fill="#000000" stroke="none">
<path d="M3369 6996 c-2 -2 -29 -7 -59 -10 -77 -9 -202 -40 -290 -71 -83 -30
-266 -118 -291 -141 -8 -8 -19 -14 -23 -14 -4 0 -20 -9 -35 -19 -24 -17 -44
-20 -142 -19 -482 3 -858 -164 -1164 -517 -41 -48 -138 -194 -183 -275 -37
-67 -47 -78 -99 -105 -247 -128 -467 -331 -602 -557 -86 -144 -167 -367 -185
-513 -15 -114 -18 -161 -17 -275 0 -124 0 -125 -33 -175 -109 -165 -180 -348
-231 -590 -4 -16 -8 -100 -10 -185 -4 -185 16 -318 71 -480 38 -113 108 -260
167 -352 36 -56 36 -56 35 -165 -5 -599 269 -1067 792 -1350 70 -39 76 -45
113 -114 144 -270 367 -497 617 -626 231 -119 442 -167 722 -165 l118 1 87
-52 c192 -116 409 -195 593 -215 83 -9 287 -9 365 0 193 23 430 113 621 234
51 32 51 32 185 33 174 0 250 9 404 47 119 30 263 89 360 146 233 139 447 368
565 605 25 50 43 73 65 83 17 7 67 35 112 62 200 118 357 264 482 448 168 250
244 519 243 857 l-1 111 50 83 c68 114 113 209 150 319 17 51 32 100 34 109 2
9 8 34 14 56 25 95 35 345 18 480 -24 195 -104 411 -224 606 l-41 66 0 129
c-1 217 -21 345 -82 524 -53 154 -166 351 -255 446 -5 6 -32 34 -58 63 -99
107 -247 217 -396 298 -69 37 -76 44 -114 114 -172 315 -416 545 -716 674 -44
18 -97 39 -118 45 -194 57 -292 71 -491 71 l-134 1 -86 52 c-173 104 -363 177
-552 211 -39 7 -345 16 -351 11z m316 -257 c66 -11 171 -40 259 -72 l40 -15
-90 -27 c-99 -30 -224 -78 -326 -124 l-67 -31 -118 51 c-124 54 -309 119 -337
119 -9 0 -16 5 -16 10 0 6 2 10 4 10 2 0 41 13 87 29 178 63 378 81 564 50z
m-1355 -277 c0 -5 -12 -19 -26 -33 -44 -40 -184 -209 -238 -286 -33 -49 -57
-73 -71 -74 -11 0 -27 -2 -35 -3 -8 -2 -48 -6 -88 -10 -70 -7 -301 -48 -344
-62 -19 -6 -17 0 13 37 36 46 111 123 172 177 102 90 322 202 449 228 12 2 50
11 83 18 74 17 85 18 85 8z m2059 -77 c98 -89 171 -165 263 -273 21 -26 23
-32 10 -33 -10 0 -42 -2 -72 -3 -70 -4 -229 -17 -249 -21 -9 -2 -45 -6 -81
-10 -36 -4 -67 -9 -69 -11 -4 -3 -61 34 -71 46 -8 11 -181 132 -263 185 -42
28 -77 53 -77 57 0 4 15 11 33 17 17 5 64 21 102 35 75 27 207 63 265 72 19 3
51 9 70 13 39 9 62 -4 139 -74z m365 70 c231 -44 439 -151 596 -307 72 -71
147 -158 137 -158 -3 0 -43 9 -89 20 -46 11 -101 22 -123 25 -22 4 -47 8 -55
10 -8 2 -46 7 -85 11 -38 4 -79 8 -90 10 -11 1 -29 3 -41 3 -14 1 -33 19 -56
54 -48 72 -151 198 -227 279 -35 38 -60 68 -55 68 5 0 44 -7 88 -15z m-1885
-21 c64 -14 161 -42 216 -61 55 -19 108 -37 118 -40 28 -9 20 -19 -50 -62 -87
-53 -213 -142 -281 -198 -30 -23 -57 -41 -61 -39 -4 3 -34 7 -66 11 -33 4 -71
8 -84 10 -40 7 -202 18 -268 19 -35 1 -63 4 -63 8 0 22 194 229 305 326 71 61
74 62 234 26z m700 -280 c64 -35 281 -173 281 -179 0 -2 -37 -13 -82 -24 -46
-12 -125 -34 -175 -48 l-93 -25 -127 35 c-71 20 -150 42 -176 49 l-49 13 94
62 c112 74 239 151 252 152 5 1 39 -15 75 -35z m-1109 -328 c41 -3 83 -5 93
-6 22 0 -247 -270 -271 -271 -27 -1 -41 -5 -182 -44 -73 -20 -133 -35 -135
-33 -2 2 18 46 44 98 45 90 59 116 118 217 13 23 32 43 41 45 20 4 188 0 292
-6z m2423 -56 c48 -79 158 -293 153 -298 -2 -2 -53 10 -113 26 -59 17 -135 36
-167 43 -58 13 -64 17 -192 146 -74 73 -128 133 -121 133 20 0 212 13 214 14
1 0 43 1 94 0 l93 -1 39 -63z m-3033 33 c0 -2 -21 -45 -47 -96 -26 -50 -72
-150 -103 -222 l-57 -129 -129 -56 c-71 -31 -171 -78 -221 -103 -51 -26 -95
-47 -97 -47 -3 0 -3 8 -2 18 22 123 31 165 43 212 8 30 16 62 18 71 8 38 67
204 76 215 14 18 208 79 339 107 159 35 180 39 180 30z m3455 -23 c107 -21
338 -92 361 -111 20 -17 106 -297 120 -389 2 -19 7 -46 10 -60 2 -14 6 -35 9
-47 2 -13 2 -23 -1 -23 -2 0 -41 19 -87 42 -45 23 -145 70 -222 104 l-140 62
-56 128 c-30 71 -77 171 -102 221 -26 51 -47 95 -47 98 0 3 10 3 23 1 12 -3
72 -15 132 -26z m-2290 -30 c28 -6 57 -13 65 -16 15 -5 -137 -72 -180 -79 -74
-11 -150 -15 -149 -8 0 4 30 34 67 66 74 64 75 64 197 37z m1126 -3 c81 -69
109 -95 109 -101 0 -6 -87 0 -149 10 -28 4 -147 52 -173 69 -15 10 -6 14 55
24 39 7 77 15 82 16 27 9 52 3 76 -18z m-3156 -373 c-22 -102 -35 -183 -50
-329 -4 -33 -8 -61 -9 -62 -1 -2 -39 -29 -83 -60 -90 -65 -148 -112 -236 -193
-71 -66 -77 -69 -72 -36 20 118 30 159 56 233 57 160 143 301 256 418 59 62
155 146 160 141 1 -1 -8 -52 -22 -112z m5145 -6 c82 -81 138 -154 195 -253 41
-73 97 -209 111 -272 16 -76 32 -168 28 -172 -2 -2 -32 22 -67 55 -80 76 -140
125 -241 197 -44 33 -82 60 -83 61 -2 1 -5 29 -8 62 -11 130 -45 329 -72 424
-6 24 -6 24 33 -7 21 -17 68 -60 104 -95z m-2395 68 c245 -9 268 -13 385 -69
223 -107 548 -296 726 -422 44 -32 78 -68 121 -132 59 -86 148 -225 183 -287
10 -17 36 -62 58 -101 23 -38 79 -146 126 -240 94 -188 83 -144 101 -420 6
-89 6 -422 1 -540 -11 -222 -14 -231 -76 -360 -110 -226 -284 -524 -409 -702
-46 -65 -124 -130 -239 -198 -9 -5 -41 -26 -72 -46 -124 -80 -312 -184 -495
-274 -140 -68 -115 -63 -360 -80 -73 -6 -488 -6 -567 -1 -228 15 -225 15 -337
68 -121 58 -363 189 -445 242 -31 20 -58 36 -61 36 -3 0 -65 41 -140 90 -129
87 -137 95 -202 188 -107 153 -270 432 -365 622 -84 169 -87 178 -93 260 -3
47 -8 114 -10 150 -6 79 -6 471 -1 556 15 233 15 232 76 359 62 127 143 279
191 358 16 26 29 52 29 57 0 6 4 10 8 10 5 0 14 12 21 27 7 15 55 91 107 170
84 128 101 148 166 194 179 125 479 300 703 409 134 65 140 66 405 76 85 4
156 7 157 8 2 2 150 -2 308 -8z m-1712 -218 c-5 -7 -31 -41 -57 -76 -40 -52
-184 -177 -194 -168 -1 2 12 45 31 97 l33 94 89 32 c103 36 111 38 98 21z
m3052 -21 l89 -32 33 -94 c19 -52 32 -95 31 -97 -10 -9 -154 116 -194 168 -26
35 -52 69 -57 76 -13 17 -4 15 98 -21z m-3568 -254 c-14 -48 -28 -101 -33
-118 -4 -16 -8 -32 -9 -35 -1 -3 -5 -24 -9 -48 -7 -39 -24 -59 -142 -177 -131
-132 -134 -134 -135 -102 -1 18 -3 43 -5 57 -3 27 -7 257 -5 302 1 26 16 38
111 91 85 47 244 126 248 122 2 -2 -7 -43 -21 -92z m4069 46 c185 -95 254
-139 255 -162 2 -36 -3 -280 -6 -312 -2 -16 -3 -42 -4 -57 -1 -25 -14 -14
-136 108 -74 74 -135 143 -135 153 0 10 -18 83 -40 164 -40 146 -43 157 -37
157 2 0 48 -23 103 -51z m-4650 -407 c1 -42 5 -102 8 -132 3 -30 9 -84 12
-120 3 -36 9 -84 13 -106 8 -40 6 -45 -59 -130 -37 -49 -100 -138 -140 -199
-87 -131 -79 -120 -86 -113 -22 22 -119 363 -130 459 -6 52 -5 56 33 104 86
108 327 334 341 320 3 -3 7 -40 8 -83z m5239 23 c57 -46 178 -166 248 -245 48
-55 48 -55 43 -113 -7 -74 -49 -239 -88 -347 -16 -47 -32 -93 -35 -102 -3 -10
-8 -18 -12 -18 -3 1 -37 48 -76 107 -38 58 -102 149 -141 201 -40 53 -71 99
-69 102 2 3 6 32 10 65 4 33 8 74 11 90 5 39 16 184 19 255 2 30 3 59 4 64 1
9 8 4 86 -59z m-4799 -353 c-2 -4 -7 -35 -11 -67 -11 -98 -14 -110 -45 -180
-16 -37 -30 -74 -31 -83 -1 -32 -27 43 -39 115 -12 68 -12 73 9 100 45 57 138
149 117 115z m4358 -86 l49 -57 -18 -100 c-10 -55 -21 -96 -25 -92 -4 5 -21
42 -38 83 -29 68 -52 174 -52 240 l0 25 18 -21 c9 -12 39 -47 66 -78z m-5349
-273 c28 -93 85 -239 129 -335 l26 -57 -24 -53 c-45 -100 -74 -173 -111 -283
-20 -60 -39 -117 -41 -125 -7 -21 -16 -4 -48 95 -85 264 -80 509 17 783 12 34
23 62 24 62 1 0 14 -39 28 -87z m6334 -75 c56 -199 59 -402 11 -593 -24 -95
-60 -195 -70 -195 -3 0 -12 22 -18 50 -15 66 -74 224 -124 331 l-40 86 51 114
c27 63 66 164 86 224 20 61 38 117 41 125 8 19 36 -43 63 -142z m-5665 -34 c3
-14 21 -84 41 -155 l37 -130 -36 -127 c-19 -70 -40 -146 -45 -170 -5 -24 -11
-45 -13 -48 -5 -4 -128 181 -183 276 l-38 65 38 70 c21 39 69 119 108 179 75
115 78 116 91 40z m5015 -58 c39 -60 85 -136 102 -170 l31 -61 -37 -65 c-50
-86 -177 -281 -180 -278 -2 2 -14 46 -28 98 -14 52 -35 129 -47 171 l-22 77
48 176 c26 97 51 173 55 169 4 -5 39 -57 78 -117z m-5306 -611 c33 -49 94
-137 136 -193 42 -57 75 -107 74 -110 0 -4 -4 -36 -8 -72 -4 -36 -9 -73 -10
-83 -4 -20 -16 -168 -20 -247 -2 -30 -4 -61 -4 -68 -1 -9 -6 -10 -18 -3 -41
22 -214 187 -311 296 l-53 60 6 56 c15 144 129 515 143 468 3 -8 32 -54 65
-104z m5605 18 c42 -115 90 -303 97 -378 l6 -60 -58 -64 c-111 -124 -135 -146
-282 -274 -18 -16 -35 -26 -38 -23 -3 3 -7 36 -8 73 -4 77 -15 229 -20 252 -2
9 -6 45 -10 81 -4 36 -8 67 -10 70 -2 3 29 49 69 102 40 53 104 144 142 202
38 58 71 106 74 106 3 0 20 -39 38 -87z m-5078 -64 c0 -5 13 -37 29 -71 30
-66 36 -91 47 -197 l7 -65 -67 74 c-36 41 -66 80 -66 89 0 34 35 189 42 185 5
-3 8 -9 8 -15z m4489 -160 c1 -18 -19 -47 -65 -99 l-66 -73 7 74 c10 100 11
106 36 164 12 28 29 66 37 85 l15 35 18 -80 c10 -44 18 -92 18 -106z m57 -454
c7 -100 8 -187 5 -272 -1 -29 -8 -36 -68 -71 -92 -53 -286 -152 -291 -147 -2
2 3 27 12 57 8 29 29 106 45 171 l31 118 127 127 c71 71 129 128 130 127 1 0
5 -50 9 -110z m-4511 -20 l125 -126 30 -117 c17 -64 38 -138 46 -165 9 -26 14
-51 12 -56 -3 -10 -158 65 -280 136 -57 33 -78 51 -79 66 -2 36 3 270 6 302 2
17 3 42 4 58 1 15 3 27 5 27 3 0 61 -56 131 -125z m-570 -284 c44 -35 104 -80
133 -99 28 -19 52 -42 52 -51 0 -15 16 -154 24 -216 9 -63 37 -200 53 -255 6
-23 3 -22 -43 15 -237 193 -370 428 -429 759 l-7 40 69 -65 c38 -35 104 -93
148 -128z m5719 147 c-40 -287 -199 -568 -428 -753 -46 -37 -49 -38 -43 -15
12 42 35 152 42 200 4 24 8 47 10 50 1 3 6 38 10 77 4 40 8 81 10 90 2 10 4
30 4 44 1 20 14 35 58 65 82 56 208 158 278 226 33 32 61 58 62 58 1 0 0 -19
-3 -42z m-4574 -355 c30 -23 142 -163 136 -171 -2 -1 -45 12 -96 30 l-94 33
-33 90 c-17 50 -32 94 -32 98 -1 5 18 -6 42 -23 23 -17 58 -43 77 -57z m3308
-14 l-33 -94 -94 -33 c-52 -18 -95 -31 -97 -29 -10 10 119 156 178 201 40 30
74 53 75 52 2 -2 -11 -45 -29 -97z m-3901 -128 c104 -52 165 -80 277 -127 l70
-30 56 -129 c31 -72 78 -172 103 -222 26 -51 47 -95 47 -97 0 -3 -10 -3 -22
-1 -12 3 -40 7 -63 11 -111 16 -340 81 -406 115 -34 17 -39 26 -72 126 -34
103 -68 241 -82 328 -3 22 -8 48 -11 58 -3 9 -3 17 0 17 3 0 50 -22 103 -49z
m4509 27 c-3 -13 -13 -61 -22 -108 -28 -150 -92 -359 -118 -386 -15 -17 -143
-61 -260 -91 -103 -25 -249 -53 -254 -48 -2 2 18 45 44 96 26 52 73 152 103
222 l56 129 150 67 c83 37 182 84 220 104 83 43 87 44 81 15z m-3726 -327 c58
-16 131 -35 164 -42 56 -12 63 -18 192 -146 110 -108 130 -133 112 -134 -13
-1 -41 -2 -63 -4 -47 -4 -281 -8 -312 -6 -21 1 -35 20 -96 131 -16 30 -40 73
-52 95 -34 62 -65 135 -57 135 4 0 54 -13 112 -29z m2940 -13 c-10 -24 -37
-76 -59 -117 -23 -41 -41 -76 -41 -78 0 -17 -76 -123 -89 -124 -23 -2 -291 3
-321 6 -14 1 -37 3 -52 4 -26 1 -16 13 107 136 117 117 157 147 178 133 1 -1
11 3 22 9 11 6 36 14 55 17 19 3 69 17 110 30 111 36 113 35 90 -16z m-2219
-133 c24 -3 58 -6 74 -7 29 -2 192 -62 208 -78 5 -4 -9 -10 -30 -13 -21 -4
-45 -8 -53 -10 -76 -19 -110 -19 -136 2 -69 55 -156 142 -116 117 5 -3 28 -8
53 -11z m1409 -41 c-96 -87 -96 -87 -148 -78 -26 4 -49 8 -52 9 -48 11 -87 18
-95 16 -7 -2 -7 1 0 7 22 21 163 74 210 79 27 2 51 6 52 7 1 1 21 3 44 5 l42
2 -53 -47z m-616 -218 c45 -14 92 -27 106 -30 37 -7 144 -36 147 -40 6 -5
-206 -141 -283 -182 l-69 -37 -80 47 c-44 27 -122 75 -174 109 l-94 61 119 33
c66 18 139 39 164 47 63 20 73 19 164 -8z m-1924 -120 c117 -23 152 -28 290
-42 41 -4 59 -11 70 -27 61 -87 159 -210 221 -279 82 -89 90 -103 63 -95 -11
3 -37 8 -59 12 -74 13 -83 15 -150 36 -211 65 -412 202 -555 378 -32 39 -39
52 -25 48 11 -4 76 -17 145 -31z m3791 -3 c-171 -213 -390 -353 -644 -413 -45
-11 -100 -21 -122 -24 l-40 -5 25 22 c56 50 213 241 290 354 11 17 28 24 65
27 131 12 183 20 307 46 73 15 137 28 141 29 5 0 -5 -16 -22 -36z m-2526 -94
c55 -41 142 -101 192 -133 73 -47 90 -62 82 -73 -7 -7 -19 -13 -28 -13 -9 0
-21 -4 -26 -8 -26 -23 -367 -112 -429 -112 -31 0 -106 59 -221 175 -76 76
-177 196 -171 202 2 2 37 6 78 8 85 4 225 16 251 21 10 2 46 6 80 9 34 4 64 9
66 11 2 2 9 0 15 -5 6 -4 56 -42 111 -82z m1325 76 c36 -4 72 -8 81 -10 24 -5
177 -17 249 -20 36 -2 69 -3 74 -4 25 -3 -169 -216 -301 -330 l-63 -54 -57 7
c-73 8 -270 59 -360 93 -37 14 -76 27 -85 30 -10 3 -18 8 -18 12 0 3 47 37
104 74 57 37 148 101 202 142 54 40 101 72 104 70 3 -2 34 -6 70 -10z m-702
-451 c94 -43 242 -101 322 -124 41 -13 79 -26 83 -30 4 -4 -18 -16 -50 -28
-194 -69 -356 -89 -557 -67 -64 7 -244 51 -261 64 -5 5 -23 11 -39 15 -15 4
-26 9 -23 12 3 3 56 23 119 44 62 21 165 61 228 88 63 28 116 51 118 51 2 1
29 -11 60 -25z"/>
</g>
</svg>
