<?xml version="1.0" standalone="no"?>
<!DOCTYPE svg PUBLIC "-//W3C//DTD SVG 20010904//EN"
 "http://www.w3.org/TR/2001/REC-SVG-20010904/DTD/svg10.dtd">
<svg version="1.0" xmlns="http://www.w3.org/2000/svg"
 width="700.000000pt" height="700.000000pt" viewBox="0 0 700.000000 700.000000"
 preserveAspectRatio="xMidYMid meet">
<metadata>
Created by potrace 1.14, written by Peter Selinger 2001-2017
</metadata>
<g transform="translate(0.000000,700.000000) scale(0.100000,-0.100000)"
fill="#000000" stroke="none">
<path d="M3379 6295 c-2 -1 -26 -6 -54 -9 -27 -4 -81 -15 -120 -26 -40 -10
-105 -18 -151 -19 -45 0 -95 -2 -110 -5 -16 -2 -49 -7 -74 -11 -25 -4 -83 -18
-130 -32 -75 -22 -119 -42 -275 -121 -22 -12 -80 -33 -130 -48 -49 -15 -118
-40 -152 -56 -92 -42 -229 -137 -303 -211 -36 -35 -76 -70 -90 -77 -179 -92
-352 -263 -458 -450 -17 -30 -46 -69 -64 -85 -131 -118 -252 -325 -307 -523
-11 -40 -35 -98 -54 -130 -87 -144 -147 -365 -148 -539 0 -61 -7 -117 -20
-165 -29 -103 -34 -155 -33 -313 1 -114 6 -159 26 -240 15 -60 26 -132 27
-180 4 -214 50 -375 165 -579 13 -23 31 -70 41 -106 49 -185 144 -351 283
-495 32 -33 75 -89 97 -125 105 -176 250 -320 419 -414 36 -20 73 -46 83 -59
99 -122 332 -261 530 -316 40 -11 99 -35 131 -54 163 -95 352 -146 557 -149
39 0 115 -12 170 -26 81 -20 126 -25 240 -26 156 -1 194 3 310 32 44 11 109
20 145 21 201 0 417 58 569 151 27 17 89 42 136 56 199 58 342 140 490 284 33
32 83 70 110 86 164 90 324 247 416 406 23 40 68 100 100 133 140 144 240 318
285 497 9 35 30 88 48 118 53 92 104 212 121 285 27 118 37 195 37 293 0 40 4
87 9 105 32 104 47 227 44 352 -1 72 -6 141 -9 155 -3 14 -8 36 -11 50 -3 14
-10 41 -16 60 -6 19 -12 69 -14 110 -9 167 -16 220 -40 325 -13 58 -51 149
-98 239 -29 56 -61 130 -71 166 -52 190 -142 347 -280 490 -34 36 -80 94 -101
130 -109 182 -244 315 -425 418 -30 17 -69 46 -85 64 -64 71 -182 160 -286
215 -65 35 -221 93 -249 93 -10 0 -49 17 -87 37 -140 75 -233 114 -299 127
-10 2 -37 9 -59 14 -50 13 -139 22 -230 24 -38 0 -104 9 -145 19 -41 10 -88
21 -105 25 -32 7 -300 15 -306 9z m182 -109 c-61 -21 -66 -21 -113 -5 -26 9
-51 19 -55 23 -4 4 47 6 112 5 l120 -2 -64 -21z m-296 -50 c11 -2 37 -6 58
-10 46 -8 47 -17 5 -35 -18 -8 -60 -30 -93 -49 -59 -34 -60 -34 -115 -21 -30
7 -59 14 -65 15 -32 7 -82 16 -92 17 -24 1 -13 8 80 53 94 46 122 50 222 30z
m686 -27 c49 -23 89 -45 89 -48 0 -3 -48 -16 -108 -29 l-107 -23 -93 52 c-51
28 -91 53 -89 55 7 7 142 32 180 33 26 1 68 -13 128 -40z m-1091 -3 c-49 -31
-59 -34 -110 -29 -30 2 -56 6 -58 7 -4 5 166 52 196 54 22 2 17 -4 -28 -32z
m1378 2 c40 -12 71 -23 69 -25 -3 -2 -28 -5 -58 -7 -46 -2 -61 2 -109 32 l-55
34 40 -7 c22 -3 73 -15 113 -27z m-627 -85 c55 -25 99 -49 99 -52 0 -3 -48
-26 -106 -50 l-106 -44 -81 36 c-45 19 -92 38 -104 42 -13 3 -23 10 -23 14 0
9 189 100 209 101 7 0 58 -21 112 -47z m-1000 -110 l-83 -77 -112 -3 -111 -3
45 40 c74 67 130 102 169 107 20 3 37 6 38 7 1 1 32 3 70 4 l68 2 -84 -77z
m1896 60 c26 -9 91 -56 143 -102 l45 -41 -113 3 -112 3 -83 78 -82 77 92 -5
c51 -4 100 -9 110 -13z m-1505 -15 c32 -7 58 -15 58 -18 0 -3 -39 -37 -86 -74
l-87 -68 -54 7 c-30 4 -65 8 -77 11 -12 2 -39 5 -59 6 -20 2 -37 6 -37 9 0 7
67 69 125 117 38 31 43 32 100 27 33 -3 86 -11 117 -17z m1232 -27 c74 -60
110 -97 99 -104 -4 -3 -37 -8 -73 -11 -36 -3 -82 -10 -102 -15 -32 -7 -42 -5
-65 12 -16 12 -30 24 -33 27 -3 4 -31 26 -62 49 -32 24 -58 47 -58 51 0 10
139 38 194 39 32 1 49 -7 100 -48z m-916 -71 c45 -18 81 -34 80 -35 -2 -1 -45
-28 -97 -59 l-93 -57 -62 19 c-33 11 -81 25 -105 32 -52 14 -53 12 62 93 87
63 75 62 215 7z m615 -33 c37 -27 66 -51 64 -53 -2 -2 -49 -17 -104 -34 l-102
-30 -95 58 -96 57 43 19 c23 10 71 29 107 41 74 27 63 31 183 -58z m-1725 28
c-33 -35 -57 -49 -98 -60 -30 -8 -56 -13 -57 -11 -7 7 167 112 191 115 4 1
-11 -19 -36 -44z m2600 21 c26 -14 72 -41 102 -61 58 -38 57 -38 -40 -14 -31
7 -138 99 -117 99 4 0 29 -11 55 -24z m-1212 -152 c46 -25 84 -47 84 -48 0 -2
-40 -20 -90 -40 l-90 -36 -90 36 c-49 20 -90 37 -90 39 0 3 86 53 140 82 37
19 45 17 136 -33z m-1146 19 c0 -2 -24 -34 -53 -71 -29 -37 -60 -78 -69 -92
-9 -16 -25 -26 -39 -26 -31 -1 -135 -12 -177 -20 l-34 -7 15 29 c8 16 38 61
66 99 l51 70 68 10 c71 11 172 15 172 8z m319 -19 l34 -5 -79 -80 -78 -79
-108 2 c-104 2 -106 2 -96 22 17 31 118 154 130 158 11 4 140 -8 197 -18z
m1740 -74 c34 -41 61 -77 61 -80 0 -4 -49 -7 -108 -8 l-108 -2 -79 80 c-43 44
-74 80 -69 81 5 0 18 2 29 5 11 2 56 7 100 10 44 4 82 8 84 11 6 5 19 -9 90
-97z m222 84 l57 -6 54 -76 c30 -43 60 -87 67 -99 14 -27 8 -28 -66 -13 -26 5
-72 12 -101 14 -29 2 -54 5 -55 7 -2 2 -30 40 -63 84 -33 44 -63 86 -68 92 -7
13 41 12 175 -3z m-2664 -56 c-9 -13 -37 -57 -61 -99 -48 -79 -51 -81 -161
-105 -5 -1 -29 -9 -52 -18 -24 -8 -43 -12 -43 -9 0 8 79 124 104 151 11 13 33
30 47 38 22 11 166 63 178 64 2 0 -4 -10 -12 -22z m941 -2 c52 -14 96 -26 98
-29 3 -2 -30 -30 -73 -61 -77 -56 -79 -56 -133 -51 -30 3 -64 8 -75 10 -11 2
-31 4 -45 4 -22 1 -17 9 53 76 43 41 79 75 80 75 1 0 44 -11 95 -24z m1157
-48 c42 -39 74 -72 72 -74 -2 -2 -23 -6 -48 -8 -24 -3 -67 -8 -96 -11 -48 -6
-55 -5 -95 27 -24 18 -45 35 -48 38 -3 3 -18 14 -33 24 -16 9 -26 20 -24 23 5
4 169 50 190 52 4 1 41 -31 82 -71z m843 43 c62 -20 118 -46 130 -60 31 -38
112 -155 112 -162 0 -4 -24 0 -52 10 -29 10 -76 24 -105 30 -49 12 -54 16 -92
79 -22 37 -50 81 -61 99 l-21 32 30 -10 c17 -5 43 -13 59 -18z m-1701 -88 c40
-15 73 -30 73 -33 0 -3 -32 -21 -70 -41 l-70 -36 -80 16 c-80 17 -81 17 -60
36 29 27 113 84 124 84 5 1 42 -11 83 -26z m547 -23 c40 -29 63 -52 55 -54 -8
-2 -44 -11 -82 -19 l-67 -14 -67 33 c-36 18 -68 35 -70 38 -9 8 122 65 152 66
6 0 41 -22 79 -50z m-293 -86 c33 -15 59 -30 59 -34 0 -7 -80 -30 -115 -33
-25 -2 -125 24 -125 33 0 6 99 58 114 59 5 1 35 -11 67 -25z m-1918 -36 c-16
-28 -37 -56 -48 -62 -10 -6 -37 -22 -59 -35 l-40 -24 32 41 c31 38 129 132
139 132 2 0 -9 -23 -24 -52z m3773 -20 c41 -39 74 -75 74 -80 0 -4 -24 4 -52
20 -42 22 -58 38 -80 80 -16 28 -25 52 -22 52 3 0 39 -32 80 -72z m-2857 47
c-1 -6 -25 -40 -53 -77 -53 -69 -55 -70 -151 -83 -22 -3 -52 -8 -67 -11 -34
-7 -34 0 -3 51 13 22 33 57 44 77 12 20 27 41 35 45 21 12 196 10 195 -2z
m2073 6 c13 -2 113 -169 106 -176 -4 -4 -190 23 -192 27 -1 2 -27 35 -59 75
-32 41 -52 73 -45 75 9 3 160 2 190 -1z m-1792 -19 c13 -6 5 -18 -41 -59 l-57
-53 -87 -6 -88 -6 59 71 58 71 70 -6 c38 -3 77 -9 86 -12z m1534 -52 l56 -69
-84 3 c-82 4 -86 5 -125 41 -22 21 -50 44 -61 52 -29 21 -18 29 42 32 29 1 54
3 55 4 1 2 15 4 31 5 26 2 37 -7 86 -68z m-2154 8 c-17 -29 -41 -72 -53 -96
-18 -35 -28 -44 -62 -52 -22 -5 -70 -18 -108 -29 l-68 -18 7 21 c10 33 75 180
83 189 9 9 134 32 194 35 l38 3 -31 -53z m2702 32 c29 -6 55 -14 59 -18 14
-13 90 -195 85 -200 -3 -3 -34 2 -68 11 -35 9 -81 21 -103 26 -35 9 -44 18
-67 63 -15 29 -39 73 -54 97 l-27 44 62 -7 c34 -4 85 -11 113 -16z m-1880 -16
c82 -12 83 -16 19 -54 -53 -32 -64 -35 -122 -31 l-64 3 54 49 c30 26 58 46 62
43 4 -2 27 -7 51 -10z m1033 -38 l55 -44 -57 -4 c-65 -3 -102 7 -157 44 l-38
26 43 10 c81 18 97 15 154 -32z m-2210 -92 c-24 -58 -45 -108 -48 -111 -6 -5
-217 -91 -217 -88 0 1 11 34 25 75 43 125 55 147 94 164 34 15 169 64 182 65
3 1 -13 -47 -36 -105z m3305 81 c130 -44 148 -55 166 -99 14 -35 64 -176 64
-181 0 -3 -211 83 -217 88 -5 6 -91 217 -88 217 1 0 34 -11 75 -25z m-1853
-11 l38 -7 -40 -18 c-41 -19 -100 -24 -130 -13 -13 5 -7 12 27 30 23 12 48 21
55 19 6 -2 29 -7 50 -11z m473 -9 c25 -13 43 -25 40 -25 -50 -11 -100 -9 -139
6 l-46 18 45 12 c25 7 47 12 50 13 3 0 25 -11 50 -24z m-260 -55 c11 -7 3 -10
-30 -9 -34 0 -40 2 -25 9 27 12 37 12 55 0z m-2005 -157 c-22 -70 -39 -111
-51 -118 -11 -5 -48 -28 -84 -51 -36 -22 -70 -43 -77 -47 -13 -8 -10 6 22 98
24 70 45 107 68 125 47 35 142 99 148 100 3 0 -9 -48 -26 -107z m1105 95 c0
-5 -18 -27 -40 -49 -29 -29 -56 -45 -93 -55 -79 -21 -81 -19 -38 44 38 56 41
58 87 61 27 1 50 3 51 5 7 7 33 2 33 -6z m240 7 c0 -11 -89 -54 -125 -60 l-40
-7 34 36 c31 32 41 36 83 36 26 0 48 -2 48 -5z m195 -4 c-16 -14 -55 -23 -55
-13 0 12 17 20 45 21 11 1 15 -3 10 -8z m920 -5 c18 -13 17 -13 -9 -11 -16 2
-33 8 -39 14 -17 17 25 14 48 -3z m276 -22 l34 -36 -45 7 c-37 6 -120 49 -120
61 0 2 22 4 48 4 42 0 52 -4 83 -36z m225 21 c23 -5 102 -115 82 -115 -51 1
-122 32 -158 69 -22 23 -40 45 -40 50 0 8 71 5 116 -4z m1008 -12 c130 -87
147 -110 197 -276 l8 -28 -32 21 c-18 11 -62 39 -99 61 -63 38 -67 43 -79 92
-6 29 -20 76 -30 105 -10 28 -15 52 -11 52 3 0 24 -12 46 -27z m-3155 -65
c-22 -35 -45 -68 -52 -74 -11 -10 -148 -56 -153 -51 -4 4 57 141 67 151 7 8
118 32 161 35 14 1 9 -12 -23 -61z m2424 38 c35 -10 41 -17 72 -86 18 -41 30
-76 26 -77 -9 -4 -141 43 -151 54 -5 4 -27 36 -49 70 l-40 62 52 -6 c29 -3 69
-11 90 -17z m-2709 -120 c-20 -47 -41 -89 -48 -93 -10 -7 -167 -73 -172 -73
-4 0 37 143 50 174 11 27 22 33 106 56 52 15 96 26 98 25 1 -1 -14 -41 -34
-89z m1584 83 c88 -2 159 -17 367 -75 104 -29 156 -51 260 -109 215 -119 262
-153 412 -304 157 -157 193 -208 343 -486 36 -67 120 -359 136 -470 3 -24 5
-311 2 -410 -1 -55 -94 -397 -125 -464 -25 -53 -161 -289 -196 -340 -16 -24
-94 -107 -172 -185 -126 -124 -158 -150 -272 -218 -234 -139 -296 -164 -563
-229 -121 -29 -125 -29 -335 -29 -177 0 -224 3 -267 16 -10 3 -29 7 -43 10
-35 6 -187 48 -270 74 -69 22 -259 123 -385 204 -36 24 -130 108 -210 188
-131 131 -153 159 -221 274 -146 246 -155 268 -218 519 -42 170 -41 161 -41
370 0 184 3 237 15 275 3 10 7 27 9 37 8 38 46 181 70 259 23 79 121 265 211
405 24 37 106 129 189 211 129 128 159 153 273 220 215 128 298 164 463 204 8
2 60 14 115 28 66 16 132 25 195 26 52 0 95 2 96 3 2 1 20 2 41 0 21 -1 75 -3
121 -4z m1470 -54 c10 -10 60 -195 53 -194 -3 0 -44 17 -91 38 l-84 37 -37 84
c-21 47 -38 88 -38 91 -1 8 187 -46 197 -56z m-3328 -44 c0 -23 -51 -206 -59
-209 -4 -1 -46 -24 -92 -51 -46 -27 -86 -44 -88 -39 -3 9 15 153 26 195 5 22
32 38 158 94 47 21 55 22 55 10z m850 4 c0 -2 -14 -12 -30 -20 -30 -16 -30
-15 -18 5 11 17 48 29 48 15z m1784 -10 c7 -19 -5 -19 -30 0 -19 14 -19 14 2
15 12 0 24 -7 28 -15z m908 -26 c51 -22 96 -44 100 -47 4 -4 10 -25 14 -47 3
-22 8 -43 9 -46 2 -3 7 -36 10 -74 l7 -69 -26 17 c-14 9 -56 33 -93 54 -37 20
-69 37 -71 39 -4 2 -52 192 -52 204 0 14 -1 14 102 -31z m-2904 -31 c-23 -30
-91 -77 -112 -78 -4 0 3 19 17 42 18 31 34 45 63 54 57 18 59 17 32 -18z
m2205 15 c18 -4 35 -19 52 -46 13 -23 22 -43 20 -45 -12 -13 -108 56 -127 92
-9 16 -8 18 8 12 11 -4 31 -10 47 -13z m-2429 -100 c-15 -27 -33 -55 -40 -63
-16 -19 -103 -65 -109 -58 -3 3 4 32 16 65 22 60 22 60 83 81 34 12 65 21 69
21 4 1 -4 -20 -19 -46z m2662 25 c60 -21 61 -22 82 -82 12 -34 22 -64 22 -68
0 -8 -106 49 -117 65 -23 30 -63 107 -56 107 4 0 35 -10 69 -22z m-3646 -22
c-5 -15 -10 -37 -10 -50 0 -13 -20 -41 -51 -71 l-51 -50 16 40 c9 22 25 52 36
67 11 15 20 30 20 34 0 10 42 65 46 61 3 -2 0 -16 -6 -31z m4617 -28 c53 -86
76 -129 70 -134 -6 -7 -97 93 -98 108 -1 18 -6 42 -14 67 -11 36 1 24 42 -41z
m-4361 -10 c-4 -24 -10 -63 -12 -88 -8 -75 -12 -102 -16 -104 -2 -1 -42 -32
-91 -69 -48 -37 -89 -67 -92 -67 -5 0 1 98 10 181 5 45 12 60 33 76 54 40 163
113 169 113 3 0 2 -19 -1 -42z m4186 -36 l76 -54 6 -57 c13 -116 15 -181 7
-181 -5 0 -11 3 -13 8 -1 4 -39 34 -83 66 -44 33 -82 60 -84 62 -2 2 -7 38
-12 81 -4 43 -11 95 -14 116 -6 38 -6 38 17 26 13 -6 57 -37 100 -67z m-3704
-47 c-24 -82 -24 -82 -106 -135 l-64 -41 6 28 c3 15 8 46 11 68 4 22 8 47 10
55 2 8 4 18 4 22 1 9 152 80 158 74 1 -1 -7 -33 -19 -71z m3194 26 c51 -23 50
-21 73 -159 l7 -43 -64 41 c-34 23 -67 45 -72 50 -7 7 -55 143 -56 158 0 2 34
-12 112 -47z m-2893 -40 c-7 -10 -21 -24 -33 -31 -20 -12 -20 -12 -6 6 14 19
41 44 47 44 2 0 -2 -8 -8 -19z m2541 -22 c10 -18 9 -19 -8 -8 -10 7 -24 21
-31 31 -11 17 -10 18 8 8 11 -6 25 -20 31 -31z m-3084 -46 c-3 -16 -10 -59
-15 -97 -6 -37 -11 -69 -13 -70 -2 -1 -35 -27 -75 -59 -43 -34 -73 -52 -75
-44 -9 26 -1 188 10 199 15 15 155 98 165 98 5 0 6 -12 3 -27z m3682 -24 l87
-50 -1 -92 c-1 -51 -2 -98 -3 -105 0 -7 -33 13 -73 45 -40 31 -74 58 -76 59
-2 1 -8 34 -12 72 -5 39 -12 82 -16 96 -3 14 -3 26 1 26 3 0 46 -23 93 -51z
m-3327 -37 c-18 -35 -79 -98 -87 -90 -2 2 3 23 10 47 9 33 22 49 51 67 22 13
41 22 43 20 2 -2 -6 -22 -17 -44z m2955 -43 c7 -24 12 -44 11 -46 -2 -1 -17 9
-35 23 -28 22 -72 89 -72 110 0 3 19 -5 42 -19 33 -19 44 -34 54 -68z m-3850
-31 l-4 -113 -77 -80 -78 -80 7 80 c10 124 12 134 37 169 26 36 111 136 116
136 1 0 1 -51 -1 -112z m4759 7 c46 -55 54 -80 61 -188 l5 -92 -77 83 -78 84
-3 111 -2 112 31 -35 c16 -19 45 -53 63 -75z m-4056 -71 c-15 -54 -27 -74 -65
-110 -25 -24 -47 -44 -48 -44 -4 0 4 103 9 127 3 13 28 36 62 57 32 20 58 36
59 36 1 0 -7 -30 -17 -66z m3357 -10 c6 -7 12 -35 13 -61 0 -26 4 -56 7 -65 8
-27 -2 -22 -52 26 -34 34 -49 58 -60 98 -7 29 -14 59 -14 66 0 13 85 -38 106
-64z m-3788 -42 l2 -108 -80 -79 c-44 -43 -81 -74 -81 -69 -1 5 -3 20 -5 34
-19 145 -20 183 -5 201 18 21 153 129 162 129 3 0 6 -48 7 -108z m4218 42 c74
-57 87 -71 86 -94 0 -33 -14 -170 -19 -188 -5 -21 -11 -17 -84 55 l-78 77 1
108 c1 59 3 108 6 108 2 0 42 -29 88 -66z m-3990 -154 c-3 -44 -9 -86 -13 -94
-15 -25 -103 -118 -104 -110 0 5 -2 17 -4 27 -2 10 -6 46 -9 81 l-6 63 67 56
c38 31 69 56 71 56 1 1 0 -35 -2 -79z m287 48 c-13 -25 -18 -29 -21 -16 -2 10
3 24 10 32 23 26 29 17 11 -16z m3117 -15 c-1 -17 -2 -17 -15 1 -21 27 -21 53
0 32 8 -8 15 -23 15 -33z m394 -132 c-4 -36 -8 -76 -8 -89 0 -30 -4 -27 -65
40 l-51 56 -6 87 -5 87 71 -58 71 -57 -7 -66z m-4287 82 c-2 -29 14 -152 23
-183 7 -26 1 -38 -61 -117 -38 -48 -73 -89 -77 -91 -9 -3 -42 156 -42 202 0
18 14 46 37 75 32 40 114 131 119 131 1 0 1 -8 1 -17z m4711 -46 c23 -29 54
-65 68 -82 24 -28 25 -34 19 -99 -3 -39 -8 -73 -11 -77 -2 -4 -6 -24 -10 -45
-9 -58 -13 -59 -46 -12 -17 24 -50 66 -74 94 -24 28 -42 53 -40 55 4 4 10 38
22 134 4 33 9 63 10 68 1 4 2 9 3 12 3 13 20 0 59 -48z m-4965 -42 c2 -41 -2
-64 -14 -79 -9 -11 -24 -34 -33 -51 l-17 -30 5 39 c6 46 47 188 53 182 2 -2 5
-29 6 -61z m5213 -118 l6 -42 -35 55 c-24 38 -34 64 -32 85 2 17 4 44 5 60 2
24 7 15 26 -43 13 -40 27 -92 30 -115z m-4322 121 c-4 -24 -19 -61 -33 -82
l-26 -40 -3 48 c-3 44 0 52 29 82 18 19 34 34 36 34 2 0 0 -19 -3 -42z m3431
-24 c4 -11 5 -38 3 -59 l-3 -39 -27 41 c-15 23 -29 60 -32 82 l-5 42 29 -23
c16 -13 32 -32 35 -44z m-3791 -34 c20 -159 24 -139 -40 -223 -32 -42 -60 -74
-62 -72 -10 9 -50 190 -45 199 9 15 136 146 139 143 1 -1 5 -22 8 -47z m4236
-91 c6 -11 1 -48 -14 -109 -14 -50 -26 -94 -29 -96 -2 -2 -30 31 -61 73 l-58
77 12 99 12 99 65 -64 c35 -34 69 -70 73 -79z m-4031 -99 c-4 -14 -20 -48 -37
-74 l-30 -49 -11 52 c-17 79 -14 92 32 146 l42 49 5 -49 c3 -28 2 -61 -1 -75z
m3764 -48 c-8 -37 -15 -67 -16 -69 -6 -5 -65 103 -67 122 -1 11 -2 43 -1 70
l2 50 47 -54 48 -54 -13 -65z m-4459 6 c10 -46 20 -94 23 -108 3 -17 -12 -53
-48 -119 -60 -107 -59 -107 -79 34 l-13 90 43 93 c24 50 46 92 49 92 4 0 15
-37 25 -82z m5186 -117 c0 -14 -7 -67 -17 -118 l-16 -92 -54 97 c-48 87 -53
101 -47 137 3 22 10 47 14 55 4 8 10 34 14 58 3 24 9 48 13 55 9 14 92 -159
93 -192z m-4891 56 c11 -43 23 -82 26 -86 7 -12 -7 -44 -50 -111 -20 -30 -40
-66 -46 -80 -11 -25 -11 -25 -31 20 -11 25 -30 74 -43 110 -28 74 -32 61 58
183 57 78 56 79 86 -36z m511 58 c-6 -15 -13 -25 -17 -22 -3 4 0 21 8 38 16
39 24 24 9 -16z m3480 -9 c0 -29 -18 -8 -24 29 -5 28 -4 29 9 11 8 -11 15 -29
15 -40z m591 -31 c71 -92 71 -91 44 -165 -12 -36 -31 -84 -41 -107 l-19 -43
-57 96 -57 95 25 92 c37 133 33 125 47 107 7 -9 33 -43 58 -75z m-4329 -84
l15 -75 -36 -68 c-20 -37 -38 -68 -41 -68 -3 0 -18 34 -34 76 -19 51 -25 82
-20 93 20 39 89 129 95 123 4 -4 13 -40 21 -81z m4089 -38 c9 -17 7 -33 -16
-92 -15 -39 -30 -73 -34 -76 -5 -2 -24 27 -43 66 l-35 70 14 67 c22 102 20
101 63 41 21 -30 44 -64 51 -76z m-3924 -42 c-3 -26 -11 -60 -18 -75 l-13 -28
-12 47 c-11 43 -10 52 9 91 17 36 23 41 30 28 5 -9 7 -38 4 -63z m3689 -57
l-12 -49 -17 49 c-18 52 -21 93 -10 122 5 13 11 7 29 -28 21 -41 22 -49 10
-94z m648 -64 c64 -125 64 -126 10 -240 -26 -55 -50 -100 -53 -100 -3 0 -26
48 -50 106 l-43 105 41 95 c23 53 41 103 41 112 0 22 10 9 54 -78z m-4945 -2
c18 -46 38 -94 44 -108 8 -21 4 -37 -20 -90 -17 -36 -36 -82 -43 -102 -8 -21
-17 -38 -21 -38 -3 0 -27 45 -53 100 -33 69 -45 107 -41 123 11 36 88 197 95
197 3 0 21 -37 39 -82z m295 -40 l36 -87 -36 -91 c-32 -80 -54 -106 -54 -64 0
8 -4 14 -10 14 -5 0 -10 4 -10 9 0 5 -15 36 -34 69 l-33 59 39 74 c22 41 44
82 50 92 5 10 11 17 13 15 2 -1 19 -42 39 -90z m4364 3 l50 -89 -50 -91 c-27
-50 -50 -91 -52 -91 -2 0 -20 41 -40 90 l-36 90 36 90 c20 50 37 90 39 90 2 0
26 -40 53 -89z m-4146 -32 c15 -55 15 -66 1 -112 -8 -29 -18 -55 -22 -60 -4
-4 -20 19 -35 52 l-28 58 27 62 c15 33 31 61 34 61 4 0 14 -27 23 -61z m3893
-118 c-16 -34 -32 -58 -36 -54 -4 4 -14 32 -23 61 -13 47 -13 57 1 105 8 28
18 56 21 61 3 5 19 -17 35 -51 l30 -60 -28 -62z m-4656 111 c15 -42 15 -52 1
-99 -8 -29 -18 -53 -22 -53 -5 0 -8 48 -8 107 0 58 3 103 7 100 3 -4 14 -29
22 -55z m5391 -59 c0 -58 -3 -103 -7 -100 -3 4 -14 29 -22 55 -15 42 -15 52
-1 99 8 29 18 53 23 53 4 0 7 -48 7 -107z m-4501 5 c0 -35 -2 -39 -9 -21 -8
19 -3 63 6 63 2 0 4 -19 3 -42z m3593 -12 c-9 -18 -11 -16 -11 19 0 33 1 37
10 21 8 -12 8 -25 1 -40z m-4069 -183 l55 -93 -25 -92 c-13 -51 -26 -100 -29
-108 -6 -17 -14 -8 -94 103 -41 57 -47 72 -40 95 10 37 72 193 75 190 1 -2 27
-45 58 -95z m4652 -53 c23 -60 23 -66 8 -90 -36 -56 -116 -161 -120 -156 -2 2
-18 49 -34 105 l-29 100 48 78 c27 43 52 87 56 98 7 17 11 14 28 -25 11 -25
30 -74 43 -110z m-4394 59 l37 -70 -15 -67 c-22 -102 -20 -101 -63 -41 -67 93
-66 87 -34 173 16 42 31 76 34 76 3 0 21 -32 41 -71z m4093 -8 c31 -89 33 -81
-41 -180 -36 -48 -34 -49 -56 51 l-15 66 37 71 c20 39 39 71 42 71 3 0 18 -36
33 -79z m-4667 11 c12 -26 34 -68 49 -94 l27 -47 -23 -98 c-13 -54 -26 -102
-30 -106 -9 -10 -90 165 -90 195 0 37 31 198 39 198 3 0 16 -22 28 -48z m5214
-9 c24 -113 18 -169 -25 -261 -40 -84 -51 -91 -60 -37 -9 47 -13 66 -27 117
-12 44 -11 51 9 85 12 21 35 64 50 95 15 32 30 57 34 58 4 0 12 -26 19 -57z
m-4453 -80 c-1 -29 -4 -53 -5 -53 -2 0 -14 18 -27 39 -17 26 -23 47 -20 63 4
12 8 36 11 52 l6 29 18 -39 c12 -25 18 -58 17 -91z m3677 -12 c-13 -25 -25
-44 -25 -41 -11 50 -9 101 6 135 l17 40 13 -44 c12 -40 12 -46 -11 -90z
m-3713 -166 c17 -33 21 -56 19 -125 l-2 -45 -45 49 c-44 48 -45 51 -40 100 4
27 9 60 12 73 l6 23 17 -23 c9 -12 23 -35 33 -52z m3783 -7 c4 -24 7 -46 8
-49 1 -3 -19 -32 -45 -63 l-48 -58 -1 53 c-2 80 0 89 34 146 35 58 40 56 52
-29z m-4005 -11 l52 -69 -8 -61 c-4 -34 -9 -65 -10 -69 -1 -5 -2 -22 -3 -40
l-1 -32 -66 64 c-36 36 -69 72 -74 81 -8 13 11 111 36 193 7 21 6 22 74 -67z
m4255 -18 c16 -61 21 -98 15 -108 -5 -9 -39 -45 -75 -81 -60 -59 -65 -63 -66
-40 -1 14 -3 34 -4 45 -2 11 -6 45 -9 76 l-7 57 58 75 c31 42 59 74 61 72 2
-2 14 -45 27 -96z m-4532 -47 l59 -73 -6 -53 c-4 -30 -9 -64 -12 -77 -3 -13
-5 -41 -5 -61 0 -21 -4 -38 -8 -38 -9 0 -66 61 -116 122 -35 45 -37 51 -31
100 7 65 22 146 32 172 7 18 7 18 17 0 6 -11 37 -52 70 -92z m631 63 c5 -28 4
-29 -9 -11 -8 11 -15 29 -15 40 0 29 18 8 24 -29z m3476 27 c0 -10 -7 -27 -15
-38 -13 -18 -14 -17 -9 10 8 45 24 64 24 28z m704 -33 c3 -13 8 -35 11 -49 3
-14 8 -51 11 -82 6 -57 6 -57 -44 -120 -54 -68 -101 -116 -103 -105 -1 4 -2
10 -3 15 -4 14 -19 147 -17 147 1 0 -2 12 -8 27 -9 24 -3 34 60 114 38 49 69
93 69 99 1 15 18 -18 24 -46z m-5054 -171 c23 -31 27 -46 24 -89 -1 -28 -5
-53 -8 -56 -6 -6 -46 129 -52 176 -2 20 -1 29 3 21 3 -8 18 -31 33 -52z m5235
20 c-4 -22 -17 -73 -30 -112 -24 -74 -28 -70 -28 24 0 28 47 128 61 130 2 0 0
-19 -3 -42z m-4352 -40 c23 -40 45 -118 33 -118 -3 0 -19 15 -35 33 -26 26
-31 40 -31 80 0 26 2 47 5 47 2 0 15 -19 28 -42z m3432 -87 l-36 -36 7 45 c4
25 19 63 33 84 l26 40 3 -49 c3 -44 0 -52 -33 -84z m-3562 3 c4 -8 10 -50 13
-95 l6 -81 -72 57 -71 58 6 61 c3 34 8 70 10 81 2 11 4 24 4 29 1 8 89 -85
104 -110z m3811 10 l6 -70 -37 -30 c-20 -16 -42 -33 -48 -39 -6 -5 -21 -19
-34 -30 l-23 -20 6 89 6 89 53 57 c60 65 62 64 71 -46z m-4026 -216 c-1 -60
-4 -108 -8 -108 -5 0 -118 89 -154 122 -13 12 -19 30 -18 55 1 34 13 147 18
166 1 4 2 12 3 19 0 6 37 -24 81 -68 l80 -79 -2 -107z m4297 146 c3 -43 8 -86
11 -95 4 -15 -22 -40 -130 -126 -23 -18 -44 -33 -47 -33 -3 0 -6 48 -7 107
l-2 108 78 77 c88 88 86 89 97 -38z m-4569 -263 l4 -114 -41 44 c-54 59 -99
125 -105 152 -2 12 -7 60 -10 107 l-6 85 77 -80 78 -80 3 -114z m4820 192 c-3
-43 -8 -87 -10 -98 -3 -11 -5 -25 -5 -32 -1 -11 -129 -173 -137 -173 -2 0 -2
50 -1 110 l3 110 74 80 c41 44 76 80 78 80 3 0 2 -35 -2 -77z m-4181 -17 c44
-43 59 -73 71 -144 l5 -33 -55 37 c-31 20 -58 47 -61 58 -5 25 -13 126 -9 126
1 0 23 -20 49 -44z m3268 21 c-3 -13 -14 -29 -24 -36 -19 -11 -19 -10 -8 11
12 23 29 48 34 48 1 0 0 -10 -2 -23z m168 -40 c-1 -28 -4 -59 -7 -68 -5 -18
-114 -95 -114 -81 0 4 7 34 15 66 12 45 26 69 58 100 23 23 44 40 46 39 3 -2
4 -27 2 -56z m-3286 23 c16 -30 15 -30 -5 -18 -11 7 -20 21 -20 30 0 26 7 22
25 -12z m-276 -147 c2 -1 5 -22 8 -45 2 -24 8 -65 14 -92 5 -27 7 -51 5 -54
-3 -2 -45 19 -93 47 l-88 52 1 92 c1 51 2 98 3 105 0 7 33 -13 74 -45 39 -31
74 -58 76 -60z m3796 8 c-1 -49 -5 -93 -9 -99 -8 -13 -166 -106 -171 -101 -2
3 3 46 10 98 11 71 19 97 34 107 10 8 43 33 72 58 30 24 57 39 60 35 3 -5 5
-49 4 -98z m-4120 -86 c44 -32 81 -60 83 -61 4 -2 7 -24 17 -114 3 -30 8 -70
12 -89 5 -32 5 -33 -18 -21 -13 7 -59 37 -101 67 l-77 55 -6 62 c-15 145 -14
194 4 169 3 -5 42 -35 86 -68z m4390 8 c-11 -144 -16 -167 -38 -186 -36 -29
-171 -116 -174 -113 -2 2 1 34 6 72 6 38 12 89 15 114 3 25 5 46 5 46 1 1 22
16 49 33 26 17 65 46 87 65 22 20 43 35 47 36 5 0 6 -30 3 -67z m-3688 -29
c32 -55 29 -59 -19 -31 -33 19 -44 34 -55 68 -7 24 -13 46 -13 48 0 14 69 -54
87 -85z m2959 37 c-9 -33 -22 -49 -51 -67 -22 -13 -41 -22 -43 -20 -9 9 41 87
70 110 18 14 33 24 35 23 1 -2 -4 -22 -11 -46z m-3190 -42 c5 0 29 -15 53 -32
37 -27 47 -43 68 -106 13 -40 23 -75 21 -77 -4 -3 -145 60 -155 69 -6 6 -31
136 -32 166 -1 11 3 11 17 -2 10 -10 23 -17 28 -18z m3380 -57 c-7 -45 -15
-85 -19 -88 -9 -9 -151 -74 -154 -70 -2 1 7 36 20 77 23 73 25 75 93 121 38
25 70 45 71 44 1 -1 -3 -39 -11 -84z m-2957 -74 c11 -17 10 -18 -8 -8 -11 6
-25 20 -31 31 -10 18 -9 19 8 8 10 -7 24 -21 31 -31z m2541 22 c-6 -11 -20
-25 -33 -31 -21 -12 -21 -11 -7 7 14 18 42 43 48 44 1 0 -2 -9 -8 -20z m-3590
-115 c7 -27 15 -56 18 -64 3 -8 1 -12 -5 -8 -14 9 -89 133 -103 171 -11 29
-11 29 33 -10 32 -29 47 -52 57 -89z m457 58 c37 -20 69 -37 71 -39 7 -4 53
-206 49 -210 -2 -3 -49 15 -103 39 l-99 43 -12 55 c-7 30 -15 83 -19 118 l-6
65 26 -17 c14 -9 56 -33 93 -54z m3794 -32 c-21 -137 -17 -129 -79 -157 -106
-49 -145 -65 -150 -60 -7 7 46 210 56 214 5 1 47 24 93 51 46 27 86 44 88 39
2 -6 -2 -45 -8 -87z m434 62 c-16 -39 -96 -166 -101 -161 -1 2 3 26 9 55 9 40
23 63 57 98 24 25 46 45 47 45 2 0 -4 -17 -12 -37z m-946 -68 c-18 -50 -27
-60 -63 -75 -22 -10 -53 -22 -69 -25 l-27 -7 33 58 c25 45 44 65 87 90 30 18
56 29 58 25 1 -5 -7 -34 -19 -66z m-2829 36 c29 -17 55 -45 76 -81 18 -30 31
-56 30 -58 -2 -1 -29 6 -62 16 -54 16 -61 21 -81 62 -47 98 -40 108 37 61z
m-244 -99 c5 -5 40 -22 78 -37 68 -29 68 -29 101 -101 42 -92 51 -119 36 -110
-6 4 -23 10 -38 12 -15 3 -56 15 -92 27 l-65 22 -27 98 c-25 92 -23 115 7 89z
m3282 -64 c-38 -135 -32 -128 -141 -158 -112 -32 -108 -39 -52 84 l33 72 83
36 c46 20 87 37 91 37 3 1 -3 -32 -14 -71z m-3716 -19 c63 -38 67 -43 79 -92
6 -29 20 -76 30 -104 10 -29 15 -53 12 -53 -11 0 -139 89 -161 113 -21 22 -58
107 -83 190 l-8 28 32 -21 c18 -11 62 -39 99 -61z m917 61 c33 -16 95 -79 88
-87 -2 -1 -22 4 -46 11 -34 10 -49 21 -68 54 -14 23 -22 42 -19 42 4 0 24 -9
45 -20z m2328 -22 c-19 -33 -34 -44 -68 -54 -24 -7 -45 -12 -47 -10 -7 8 53
68 87 86 52 28 56 25 28 -22z m1003 -15 c-27 -87 -55 -146 -81 -169 -31 -28
-140 -104 -150 -104 -4 0 3 33 16 73 12 39 26 87 31 106 7 26 20 41 54 59 25
14 67 40 95 59 27 18 51 33 51 33 1 0 -6 -26 -16 -57z m-3470 -76 c74 -23 76
-25 121 -93 26 -38 46 -70 45 -71 -3 -3 -138 17 -158 23 -10 3 -27 26 -39 52
-35 79 -49 112 -47 112 2 0 37 -10 78 -23z m420 -17 c0 -14 -40 2 -50 20 -9
17 -8 17 20 3 17 -8 30 -18 30 -23z m1788 20 c-7 -11 -21 -20 -30 -20 -25 0
-22 7 10 24 35 19 34 20 20 -4z m439 -12 c-32 -76 -60 -128 -68 -129 -5 -1
-12 -2 -16 -3 -24 -5 -83 -16 -116 -21 l-37 -6 40 63 c54 82 50 80 128 105 87
28 85 28 69 -9z m-3040 -121 c5 -6 91 -217 88 -217 -6 0 -176 60 -197 70 -16
8 -33 29 -44 54 -15 37 -64 176 -64 182 0 3 211 -84 217 -89z m3558 13 c-44
-130 -55 -148 -99 -166 -35 -14 -176 -64 -181 -64 -4 0 83 211 88 217 7 6 211
90 214 88 2 -1 -8 -34 -22 -75z m-2895 39 c25 -6 51 -12 58 -13 10 -2 102 -91
102 -100 0 -3 -100 4 -126 9 -19 4 -103 115 -87 115 5 0 28 -5 53 -11z m2061
-47 c-38 -57 -40 -58 -90 -61 -27 -1 -59 -4 -70 -6 -12 -2 -21 -2 -21 -1 0 2
19 25 43 50 32 35 55 50 92 61 88 24 90 22 46 -43z m-1707 -41 l40 -26 -49 -3
c-44 -3 -52 0 -84 33 l-36 36 45 -7 c25 -4 63 -19 84 -33z m1425 3 c-32 -32
-40 -35 -84 -32 l-49 3 41 27 c36 23 59 31 113 37 8 0 -1 -15 -21 -35z m-2215
-28 c54 -13 99 -26 100 -28 2 -1 16 -28 33 -58 16 -30 39 -72 52 -94 l22 -38
-61 6 c-33 4 -84 11 -112 16 -28 6 -52 10 -54 10 -5 0 -94 195 -94 206 0 7 15
5 114 -20z m1009 15 c4 -1 7 -5 7 -11 0 -14 -23 -12 -45 3 -19 15 -21 14 38 8z
m937 -1 c0 -11 -48 -25 -57 -16 -3 3 5 10 18 15 32 13 39 13 39 1z m1080 6 c0
-6 -30 -76 -61 -142 l-28 -61 -58 -11 c-32 -7 -85 -15 -118 -18 l-59 -7 15 24
c9 13 33 56 54 94 21 39 40 72 41 73 3 5 175 49 197 51 9 0 17 -1 17 -3z
m-2715 -81 c28 -3 60 -8 72 -11 27 -5 148 -150 130 -156 -18 -7 -183 -2 -195
6 -11 6 -102 160 -102 172 0 3 10 4 23 1 12 -3 45 -8 72 -12z m1163 4 c-18 -7
-33 -7 -45 0 -14 8 -9 10 27 10 42 -1 43 -1 18 -10z m1222 4 c0 -12 -92 -163
-103 -170 -12 -7 -186 -12 -199 -6 -5 2 18 37 49 76 32 40 58 73 58 74 1 2 79
15 188 32 4 0 7 -2 7 -6z m-3098 -140 c17 -29 27 -53 24 -53 -11 0 -105 91
-138 132 l-29 38 57 -33 c44 -25 64 -44 86 -84z m1680 95 l27 -15 -51 -12
c-43 -10 -54 -9 -68 4 -9 8 -21 15 -27 15 -6 0 -16 7 -23 15 -11 13 -4 14 51
11 35 -2 76 -10 91 -18z m508 12 c3 0 -16 -12 -41 -25 -42 -22 -49 -23 -95
-11 l-48 12 39 17 c33 14 108 18 145 7z m-1030 -63 c31 -28 56 -53 55 -55 -3
-4 -39 -9 -111 -16 l-61 -6 -58 71 -57 71 87 -6 88 -6 57 -53z m235 37 c22
-10 50 -26 63 -36 22 -16 22 -16 -28 -27 -79 -17 -92 -14 -144 32 l-49 42 54
5 c65 7 56 8 104 -16z m1036 -34 c-30 -26 -59 -46 -65 -45 -6 2 -37 9 -69 15
l-59 12 36 25 c59 39 89 48 152 44 l59 -3 -54 -48z m303 -10 l-57 -71 -61 6
c-34 3 -74 8 -89 11 l-29 6 58 51 c61 56 74 60 172 65 l64 3 -58 -71z m1107
53 c-12 -21 -135 -143 -144 -143 -4 0 6 24 21 54 22 44 36 59 77 79 27 14 51
26 53 26 1 1 -2 -7 -7 -16z m-1913 -73 c28 -8 52 -17 52 -20 0 -4 -27 -19 -61
-35 l-61 -28 -59 29 c-33 15 -56 31 -52 35 11 10 106 38 118 35 6 -2 34 -9 63
-16z m-1623 -80 c8 0 32 -30 54 -67 22 -38 50 -82 61 -100 l21 -32 -30 10
c-134 41 -174 62 -212 111 -41 50 -89 121 -89 130 0 3 41 -7 90 -23 50 -16 97
-29 105 -29z m3279 8 c-73 -117 -118 -152 -251 -191 l-51 -15 21 34 c12 19 38
62 58 96 l37 61 103 32 c57 17 105 30 107 29 2 -1 -9 -22 -24 -46z m-1911 -18
c37 -19 67 -37 67 -41 0 -3 -36 -18 -80 -33 l-79 -28 -62 44 c-35 23 -64 48
-66 54 -3 9 128 45 147 40 3 0 36 -17 73 -36z m529 20 c34 -7 66 -14 71 -17 9
-5 -121 -103 -137 -103 -15 0 -156 54 -156 60 0 9 135 78 147 75 6 -2 40 -9
75 -15z m-1686 -50 c34 -6 82 -12 108 -14 26 -2 48 -5 50 -7 1 -2 28 -39 60
-81 32 -43 62 -80 67 -84 36 -22 -14 -25 -167 -9 l-62 6 -55 77 c-61 86 -82
122 -70 122 4 0 36 -5 69 -10z m871 -41 c37 -28 72 -55 76 -59 9 -8 -65 -33
-126 -44 -15 -2 -36 -8 -47 -11 -16 -5 -37 9 -95 66 -41 40 -73 74 -72 76 2 2
35 6 73 9 38 3 71 8 73 10 15 15 59 -3 118 -47z m1158 36 c11 -2 29 -4 40 -4
16 -1 6 -15 -45 -66 -36 -36 -72 -70 -81 -75 -12 -7 -45 -2 -109 14 -50 14
-93 26 -95 28 -2 2 29 29 68 60 l72 57 65 -6 c36 -3 74 -7 85 -8z m724 -7
c-12 -22 -59 -91 -102 -150 -16 -21 -30 -27 -76 -32 -101 -11 -181 -16 -181
-12 0 7 132 180 141 187 5 3 28 6 52 8 23 1 67 6 97 10 86 13 82 14 69 -11z
m-2184 -88 c43 -44 73 -81 66 -81 -6 -1 -14 -2 -18 -3 -5 -2 -44 -6 -88 -10
-44 -5 -88 -10 -97 -12 -10 -1 -32 16 -55 44 -20 26 -40 49 -43 52 -10 8 -60
77 -60 82 0 2 49 5 108 6 l108 2 79 -80z m1845 71 c0 -9 -108 -144 -129 -162
-16 -13 -32 -14 -97 -7 -44 4 -94 10 -113 13 l-33 6 78 80 79 79 107 -2 c60
-1 108 -4 108 -7z m-980 -67 c104 -42 105 -35 -19 -102 l-73 -40 -89 50 c-50
28 -88 52 -86 54 3 4 166 72 174 74 2 0 44 -16 93 -36z m-288 -130 c51 -31 94
-58 96 -59 1 -1 -46 -21 -104 -44 l-107 -42 -66 45 c-102 71 -128 94 -111 100
8 2 56 15 105 29 50 14 91 26 92 26 1 1 44 -24 95 -55z m598 25 l109 -32 -36
-24 c-20 -13 -41 -30 -48 -37 -7 -7 -35 -27 -62 -44 l-48 -31 -65 24 c-36 13
-84 32 -107 42 l-43 18 93 57 c50 31 93 57 95 57 2 1 52 -13 112 -30z m-1775
-58 c26 -7 56 -27 85 -56 37 -38 41 -45 20 -37 -46 18 -180 98 -180 108 0 3 8
3 18 0 9 -3 35 -9 57 -15z m2820 9 c-7 -12 -133 -86 -171 -100 -26 -10 -26 -9
12 33 30 34 51 48 94 59 71 20 72 20 65 8z m-1967 -79 c45 -35 82 -67 82 -71
0 -4 -19 -11 -42 -15 -24 -4 -50 -9 -58 -11 -8 -2 -41 -6 -73 -10 -55 -6 -59
-5 -105 32 -63 50 -122 106 -122 116 0 5 12 8 28 7 30 0 99 8 152 20 41 9 35
13 138 -68z m1272 53 c36 -4 68 -8 72 -8 28 -3 -10 -47 -110 -125 -41 -32 -46
-33 -100 -27 -87 10 -173 29 -170 38 2 4 43 39 91 77 81 64 90 68 120 61 18
-5 61 -12 97 -16z m-1637 -98 l82 -78 -85 6 c-136 9 -147 14 -255 111 l-50 45
113 -3 112 -3 83 -78z m2031 39 c-66 -60 -116 -95 -145 -100 -13 -3 -62 -8
-109 -11 l-85 -5 83 78 84 78 111 2 110 3 -49 -45z m-1027 -51 c50 -21 89 -42
86 -47 -7 -12 -186 -97 -203 -97 -7 0 -57 21 -111 46 -79 38 -97 50 -88 60 6
8 17 14 23 14 6 0 45 16 86 35 41 19 84 32 95 30 11 -2 61 -20 112 -41z m-421
-93 c5 -6 44 -28 87 -50 94 -47 90 -52 -48 -71 l-90 -13 -93 43 c-51 24 -90
46 -86 49 8 8 163 48 195 50 14 0 29 -3 35 -8z m769 -19 c79 -18 80 -19 55
-35 -14 -9 -56 -30 -95 -48 l-70 -32 -90 13 c-96 13 -134 23 -119 32 5 3 41
23 79 43 39 21 75 42 80 47 11 11 42 7 160 -20z m-1100 -71 l50 -33 -40 6
c-55 9 -185 48 -185 55 0 3 28 6 63 5 52 -1 70 -6 112 -33z m1420 29 l30 -1
-25 -10 c-37 -15 -167 -49 -187 -49 -9 0 7 15 36 33 36 23 62 33 84 31 18 -1
46 -3 62 -4z m-731 -102 c74 -21 62 -28 -47 -28 -111 0 -134 9 -69 27 52 15
69 15 116 1z"/>
</g>
</svg>
